SplineFontDB: 3.0
FontName: Boon-Black
FullName: Boon Black
FamilyName: Boon
Weight: Black
Copyright: Created by Sungsit Sawaiwan,,, with FontForge 2.0 (http://fontforge.sf.net)
UComments: "2013-5-2: Created." 
Version: 0.1
ItalicAngle: 0
UnderlinePosition: -120
UnderlineWidth: 60
Ascent: 900
Descent: 300
LayerCount: 2
Layer: 0 0 "Back"  1
Layer: 1 0 "Fore"  0
XUID: [1021 986 1629648563 13463922]
FSType: 8
OS2Version: 0
OS2_WeightWidthSlopeOnly: 0
OS2_UseTypoMetrics: 1
CreationTime: 1367466433
ModificationTime: 1368073778
PfmFamily: 33
TTFWeight: 900
TTFWidth: 5
LineGap: 108
VLineGap: 0
OS2TypoAscent: 0
OS2TypoAOffset: 1
OS2TypoDescent: 0
OS2TypoDOffset: 1
OS2TypoLinegap: 108
OS2WinAscent: 0
OS2WinAOffset: 1
OS2WinDescent: 0
OS2WinDOffset: 1
HheadAscent: 0
HheadAOffset: 1
HheadDescent: 0
HheadDOffset: 1
OS2Vendor: 'PfEd'
Lookup: 1 0 0 "Thai Glyph Substitutions"  {"Tone Marks" ("rp" ) } []
Lookup: 1 0 0 "'ccmp' Thai Single Substitutions"  {"'ccmp' Upper Vowels" ("rp" ) } ['ccmp' ('DFLT' <'dflt' > 'latn' <'dflt' > 'thai' <'dflt' > ) ]
Lookup: 2 0 0 "'ccmp' Thai Sara Am Decomposition"  {"Sara Am Decomposition"  } ['ccmp' ('DFLT' <'dflt' > 'latn' <'dflt' > 'thai' <'dflt' > ) ]
Lookup: 6 0 0 "'ccmp' Thai Contextual Substitutions"  {"'ccmp' Tone Mark Substitutions"  } ['ccmp' ('DFLT' <'dflt' > 'latn' <'dflt' > 'thai' <'dflt' > ) ]
Lookup: 4 0 1 "'liga' Thai Ligatures"  {"Tone - Nikhahit"  } ['liga' ('DFLT' <'dflt' > 'latn' <'dflt' > 'thai' <'dflt' > ) ]
Lookup: 262 0 0 "'mkmk' Thai Mark to Mark"  {"'mkmk' Upper Vowels - Tone Marks"  } ['mkmk' ('DFLT' <'dflt' > 'latn' <'dflt' > 'thai' <'dflt' > ) ]
MarkAttachClasses: 1
DEI: 91125
ChainSub2: coverage "'ccmp' Tone Mark Substitutions"  0 0 0 1
 1 1 0
  Coverage: 39 uni0E48 uni0E49 uni0E4A uni0E4B uni0E4C

StartChar: uniF8FF
Encoding: 63743 63743 0
Width: 1450
VWidth: 0
Flags: W
HStem: -394 181<560.402 640.588> -320 100<1085.38 1199.88> -123 75<560.516 639.484> -113 65<949.488 1030.51> -12 120<379.5 527.377 1083.43 1179.58> 498 120<722.957 849.652> 512 100<151.832 248.168>
VStem: 40 100<403.092 500.168> 170 190<127.105 301.374> 260 100<403.108 499.443> 480 75<-208.066 -128.515> 530 190<118.485 492.666> 560 160<-394 -269.086> 645 75<-208.588 -129.619> 880 190<121.59 464.65> 880 65<-197.852 -117.488> 1035 65<-198.71 -117.488> 1180 190<113.552 590>
LayerCount: 2
Fore
SplineSet
1212.5 -71 m 27,0,-1
780 618 m 1,1,-1
 976 618 1069 503 1070 340 c 1,4,-1
 1070 200 l 2,5,-1
 1070 137 1091 108 1125 108 c 0,8,-1
 1159 108 1180 130 1180 130 c 1,11,-1
 1180 590 l 1,12,-1
 1370 590 l 1,13,-1
 1370 60 l 1,14,-1
 1370 60 1277 -12 1125 -12 c 0,17,-1
 973 -12 880 56 880 200 c 2,20,-1
 880 340 l 2,21,-1
 880 423 873 498 780 498 c 0,24,-1
 734 498 720 475 720 475 c 1,27,-1
 720 60 l 1,28,-1
 720 60 648 -12 435 -12 c 0,31,-1
 222 -12 170 61 170 205 c 2,34,-1
 170 295 l 1,35,-1
 96 309 40 374 40 452 c 0,38,-1
 40 540 112 612 200 612 c 0,41,-1
 288 612 360 540 360 452 c 2,44,-1
 360 205 l 2,45,-1
 360 142 386 108 440 108 c 0,48,-1
 494 108 530 130 530 130 c 1,51,-1
 530 560 l 1,52,-1
 530 560 629 616 780 618 c 1,1,-1
200 512 m 0,55,-1
 167 512 140 485 140 452 c 0,58,-1
 140 419 167 392 200 392 c 0,61,-1
 233 392 260 419 260 452 c 0,64,-1
 260 485 233 512 200 512 c 0,55,-1
600 -48 m 0,67,-1
 666 -48 720 -102 720 -168 c 2,70,-1
 720 -394 l 1,71,-1
 560 -394 l 1,72,-1
 560 -281 l 1,73,-1
 513 -265 480 -220 480 -168 c 0,76,-1
 480 -102 534 -48 600 -48 c 0,67,-1
990 -48 m 0,79,-1
 1051 -48 1100 -97 1100 -158 c 0,82,-1
 1100 -178 1095 -197 1085 -213 c 1,85,-1
 1097 -217 1110 -220 1125 -220 c 0,88,-1
 1202 -219 1242 -157 1260 -98 c 1,91,-1
 1410 -98 l 1,92,-1
 1361 -219 1269 -320 1125 -320 c 0,95,-1
 1023 -320 880 -270 880 -158 c 0,98,-1
 880 -97 929 -48 990 -48 c 0,79,-1
990 -113 m 0,101,-1
 965 -113 945 -133 945 -158 c 0,104,-1
 945 -183 965 -203 990 -203 c 0,107,-1
 1015 -203 1035 -183 1035 -158 c 0,110,-1
 1035 -133 1015 -113 990 -113 c 0,101,-1
600 -123 m 0,113,-1
 575 -123 555 -143 555 -168 c 0,116,-1
 555 -193 575 -213 600 -213 c 0,119,-1
 625 -213 645 -193 645 -168 c 0,122,-1
 645 -143 625 -123 600 -123 c 0,113,-1
EndSplineSet
EndChar

StartChar: uni0E01
Encoding: 3585 3585 1
Width: 660
VWidth: 0
Flags: W
HStem: 0 21G<60 250 410 600> 492 120<224.213 379.652>
VStem: 60 190<0 339.278> 410 190<0 458.65>
LayerCount: 2
Fore
SplineSet
250 0 m 1
 60 0 l 1
 60 284 l 2
 60 312 92 355 125 374 c 1
 20 423 l 1
 97 544 180 610 310 612 c 1
 506 612 599 497 600 334 c 1
 600 0 l 1
 410 0 l 1
 410 334 l 2
 410 417 403 492 310 492 c 0
 238 492 205 452 185 431 c 1
 290 379 l 1
 290 379 250 355 250 324 c 2
 250 0 l 1
EndSplineSet
EndChar

StartChar: uni0E10.rp
Encoding: 63232 63232 3
Width: 580
VWidth: 0
Flags: W
HStem: 94 65<139.488 220.15> 249 65<139.488 219.882> 492 120<226.738 415.272>
VStem: 70 65<163.488 244.512> 330 190<16.9536 56.2682 154 322.287>
LayerCount: 2
Fore
SplineSet
300 612 m 4
 388 612 451 571 480 540 c 1
 502 562 560 590 560 590 c 1
 560 480 l 1
 560 480 534 470 480 420 c 1
 424 476 354 492 300 492 c 4
 246 492 200 456 200 424 c 5
 375 404 520 386 520 284 c 6
 520 21 l 1
 520 21 463 -12 330 -12 c 1
 330 -12 305 70 264 132 c 1
 243 109 213 94 180 94 c 0
 119 94 70 143 70 204 c 0
 70 265 119 314 180 314 c 0
 294 314 330 154 330 154 c 1
 330 291 l 6
 330 356 95 354 10 364 c 5
 10 534 180 612 300 612 c 4
180 249 m 0
 155 249 135 229 135 204 c 0
 135 179 155 159 180 159 c 0
 205 159 225 179 225 204 c 0
 225 229 205 249 180 249 c 0
EndSplineSet
EndChar

StartChar: uni0E0D.rp
Encoding: 63247 63247 4
Width: 940
VWidth: 0
Flags: W
HStem: -12 120<613.47 709.588> -12 75<144.489 235.511> 492 120<224.213 379.652>
VStem: 60 190<216.095 339.278> 60 75<73.2203 164.242> 245 75<72.4892 164.461> 410 190<121.59 458.65> 710 190<113.552 590>
LayerCount: 2
Fore
SplineSet
310 612 m 5x73
 506 612 599 497 600 334 c 5
 600 200 l 2
 600 137 621.306 108 655 108 c 0
 688.694 108 710 130 710 130 c 1
 710 590 l 1
 900 590 l 1
 900 60 l 1
 900 60 807.083 -12 655 -12 c 0
 502.917 -12 410 56 410 200 c 2
 410 334 l 6
 410 417 403 492 310 492 c 4
 238 492 205 452 185 431 c 5
 290 379 l 5
 290 379 250 355 250 324 c 6
 250 233 l 1xb3
 292 212 320 168 320 118 c 0
 320 46 262 -12 190 -12 c 0
 118 -12 60 46 60 118 c 2x6f
 60 284 l 6
 60 312 92 355 125 374 c 5
 20 423 l 5
 97 544 180 610 310 612 c 5x73
190 173 m 0
 160 173 135 148 135 118 c 0
 135 88 160 63 190 63 c 0
 220 63 245 88 245 118 c 0x6f
 245 148 220 173 190 173 c 0
EndSplineSet
EndChar

StartChar: uni0E1A
Encoding: 3610 3610 5
Width: 730
VWidth: 0
Flags: W
HStem: -12 120<349.5 497.377> 512 100<121.832 218.168>
VStem: 10 100<403.092 500.168> 140 190<127.105 301.374> 230 100<403.108 499.443> 500 190<118.485 590>
LayerCount: 2
Fore
SplineSet
170 612 m 4xf4
 258 612 330 540 330 452 c 6xec
 330 205 l 6
 330 142 356 108 410 108 c 4
 464 108 500 130 500 130 c 5
 500 590 l 5
 690 590 l 5
 690 60 l 5
 690 60 618 -12 405 -12 c 4
 192 -12 140 61 140 205 c 6
 140 295 l 5
 66 309 10 374 10 452 c 4
 10 540 82 612 170 612 c 4xf4
170 512 m 4
 137 512 110 485 110 452 c 4
 110 419 137 392 170 392 c 4
 203 392 230 419 230 452 c 4
 230 485 203 512 170 512 c 4
EndSplineSet
EndChar

StartChar: uni0E40
Encoding: 3648 3648 8
Width: 340
VWidth: 0
Flags: W
HStem: -12 75<144.489 235.511>
VStem: 60 190<216.095 590> 60 75<73.2203 164.242> 245 75<72.4892 164.461>
LayerCount: 2
Back
SplineSet
60 590 m 5xd0
 230 590 l 5
 230 242 l 5xd0
 282 225 320 176 320 118 c 4
 320 46 262 -12 190 -12 c 4
 118 -12 60 46 60 118 c 6xb0
 60 590 l 5xd0
190 173 m 4
 160 173 135 148 135 118 c 4xb0
 135 88 160 63 190 63 c 4
 220 63 245 88 245 118 c 4
 245 148 220 173 190 173 c 4
EndSplineSet
Fore
SplineSet
60 590 m 1xc0
 250 590 l 1
 250 233 l 1xc0
 292 212 320 168 320 118 c 0
 320 46 262 -12 190 -12 c 0
 118 -12 60 46 60 118 c 2xb0
 60 590 l 1xc0
190 173 m 0
 160 173 135 148 135 118 c 0
 135 88 160 63 190 63 c 0
 220 63 245 88 245 118 c 0xb0
 245 148 220 173 190 173 c 0
EndSplineSet
EndChar

StartChar: uni0E3A
Encoding: 3642 3642 10
Width: 0
VWidth: 0
Flags: W
HStem: -258 200<-217.147 -82.8529>
VStem: -250 200<-225.147 -90.8529>
LayerCount: 2
Fore
SplineSet
-50 -158 m 0
 -50 -213 -95 -258 -150 -258 c 0
 -205 -258 -250 -213 -250 -158 c 0
 -250 -103 -205 -58 -150 -58 c 0
 -95 -58 -50 -103 -50 -158 c 0
EndSplineSet
EndChar

StartChar: exclam
Encoding: 33 33 12
Width: 340
VWidth: 0
Flags: HW
HStem: -12 200<102.853 237.147>
VStem: 70 200<20.8529 155.147> 80 180<635.4 900> 100 140<270 534.6>
LayerCount: 2
Fore
SplineSet
80 900 m 1xa0
 260 900 l 1xa0
 240 270 l 1
 100 270 l 1x90
 80 900 l 1xa0
EndSplineSet
Refer: 11 46 N 1 0 0 1 40 0 2
EndChar

StartChar: uni0E34
Encoding: 3636 3636 13
Width: 0
VWidth: 0
Flags: HW
HStem: 650 60<-535 -295> 772 100<-506.028 -338.445>
LayerCount: 2
Back
SplineSet
-420 920 m 4
 -176 920 -90 742.466 -90 688 c 5
 -640 688 l 5
 -640 805 -537.334 920 -420 920 c 4
-420 820 m 4
 -474 820 -500 782.114 -500 758 c 5
 -250 758 l 5
 -288 814 -362 820 -420 820 c 4
-1017.5 922 m 0
 -854.5 922 -752.5 805 -752.5 690 c 1
 -1282.5 690 l 1
 -1282.5 807 -1180.5 922 -1017.5 922 c 0
-1017.5 832 m 0
 -1092.5 832 -1120.5 802 -1137.5 770 c 1
 -897.5 770 l 1
 -913.5 802 -942.5 832 -1017.5 832 c 0
EndSplineSet
Fore
Refer: 54 63233 S 1 0 0 1 -60 -40 2
Substitution2: "'ccmp' Upper Vowels" uni0E34.rp
EndChar

StartChar: uni0E1B
Encoding: 3611 3611 14
Width: 700
VWidth: 0
Flags: W
HStem: -12 120<319.5 467.377> 522 90<108.642 201.358>
VStem: 10 90<420.934 513.358> 110 190<127.105 340.44> 210 90<420.758 513.242> 470 190<118.485 860>
LayerCount: 2
Fore
SplineSet
155 612 m 0xf4
 235 612 300 547 300 467 c 6xec
 300 205 l 2
 300 142 326 108 380 108 c 0
 434 108 470 130 470 130 c 1
 470 860 l 1
 660 860 l 1
 660 60 l 1
 660 60 588 -12 375 -12 c 0
 162 -12 110 61 110 205 c 2
 110 329 l 1
 52 348 10 403 10 467 c 0
 10 547 75 612 155 612 c 0xf4
155 522 m 0
 125 522 100 497 100 467 c 0
 100 437 125 412 155 412 c 0
 185 412 210 437 210 467 c 0
 210 497 185 522 155 522 c 0
EndSplineSet
EndChar

StartChar: uni0E37
Encoding: 3639 3639 19
Width: 0
VWidth: 0
Flags: HW
HStem: 650 60<-535 -298> 772 100<-506.028 -369.381>
VStem: -250 100<800 910>
LayerCount: 2
Back
SplineSet
-392 950 m 5
 -270 950 l 5
 -208 816 l 5
 -168 816 l 5
 -230 950 l 5
 -90 950 l 5
 -90 690 l 5
 -620 690 l 5
 -620 807 -538 912 -375 912 c 5
 -392 950 l 5
-375 812 m 4
 -426 812 -458 782 -475 750 c 5
 -235 750 l 5
 -273 788 -309 812 -375 812 c 4
EndSplineSet
Fore
Refer: 57 63236 S 1 0 0 1 -60 -40 2
Substitution2: "'ccmp' Upper Vowels" uni0E37.rp
EndChar

StartChar: uni0E36
Encoding: 3638 3638 20
Width: 0
VWidth: 0
Flags: HW
HStem: 650 60<-554 -314> 650 117<-299.61 -218.605> 772 100<-525.59 -359.977> 857 65<-299.155 -219.084>
VStem: -700 396<650 812> -214 64<772.054 852.512>
LayerCount: 2
Back
SplineSet
-170 992 m 4x7c
 -109 992 -60 943 -60 882 c 4
 -60 845 -79 812 -107 792 c 5
 -89 760 -80 725 -80 690 c 5
 -610 690 l 5
 -610 807 -508 922 -345 922 c 4
 -320 922 -297 919 -275 914 c 5
 -261 959 -220 992 -170 992 c 4x7c
-170 927 m 4
 -195 927 -215 907 -215 882 c 4
 -215 857 -195 837 -170 837 c 4x9c
 -145 837 -125 857 -125 882 c 4
 -125 907 -145 927 -170 927 c 4
-345 832 m 4x7c
 -420 832 -448 802 -465 770 c 5
 -225 770 l 5
 -241 802 -270 832 -345 832 c 4x7c
EndSplineSet
Fore
Refer: 56 63235 S 1 0 0 1 -90 -40 2
Substitution2: "'ccmp' Upper Vowels" uni0E36.rp
EndChar

StartChar: uni0E03
Encoding: 3587 3587 21
Width: 650
VWidth: 0
Flags: W
HStem: -12 120<329.028 418.245> 287 65<93.3212 172.788> 442 65<93.3008 173.012>
VStem: 10 78<356.639 482.837> 130 190<116.248 233.657> 178 64<357.345 436.655> 291 100<370.648 512.547> 420 190<110.783 590>
LayerCount: 2
Fore
SplineSet
125 612 m 5xf5
 195 560 l 1
 265 612 l 5
 265 612 391 552 391 410 c 0xf7
 391 301 320 245 320 170 c 0
 320 133 341 108 370 108 c 0
 399 108 420 120 420 120 c 1
 420 590 l 1
 610 590 l 1
 610 60 l 1
 610 60 518 -12 370 -12 c 0
 222 -12 130 34 130 140 c 2
 130 170 l 2xf9
 130 256 291 337 291 448 c 0xf3
 291 524 258 546 258 546 c 1
 195 500 l 1
 130 546 l 1xf9
 130 546 101 528 93 500 c 1
 104 505 121 507 132 507 c 0
 193 507 242 460 242 397 c 0
 242 334 193 287 131 287 c 0
 69 287 10 327 10 420 c 0
 10 573 125 612 125 612 c 5xf5
133 442 m 0
 109 442 88 422 88 397 c 0
 88 372 109 352 133 352 c 0
 158 352 178 372 178 397 c 0
 178 422 158 442 133 442 c 0
EndSplineSet
EndChar

StartChar: uni0E02
Encoding: 3586 3586 23
Width: 640
VWidth: 0
Flags: W
HStem: -12 120<319.028 408.245> 307 70<103.321 182.788> 467 65<142 182.437> 548 64<143.208 249.423>
VStem: 20 78<382.808 461.571> 120 190<116.248 233.657> 188 64<382.038 461.655> 281 100<370.648 514.564> 410 190<110.783 590>
LayerCount: 2
Fore
SplineSet
190 612 m 4xfb80
 330 612 381 519 381 410 c 4xfb80
 381 301 310 245 310 170 c 4
 310 133 331 108 360 108 c 4
 389 108 410 120 410 120 c 5
 410 590 l 5
 600 590 l 5
 600 60 l 5
 600 60 508 -12 360 -12 c 4
 212 -12 120 34 120 140 c 6
 120 170 l 6xfc80
 120 256 281 337 281 448 c 4
 281 510 232 546 190 548 c 5
 168 548 155 543 142 532 c 5
 203 532 252 485 252 422 c 4
 252 359 203 307 141 307 c 4
 79 307 20 352 20 445 c 4
 20 528 85 612 190 612 c 4xfb80
143 467 m 4
 119 467 98 447 98 422 c 4
 98 397 119 377 143 377 c 4
 168 377 188 397 188 422 c 4
 188 447 168 467 143 467 c 4
EndSplineSet
EndChar

StartChar: uni0E0B
Encoding: 3595 3595 24
Width: 670
VWidth: 0
Flags: W
HStem: -12 120<329.028 418.245> 287 65<93.3212 172.788> 442 65<93.3008 173.012> 496 164<530.832 630>
VStem: 10 78<356.639 482.837> 130 190<116.248 233.642> 178 64<357.345 436.655> 420 190<110.783 352.686>
LayerCount: 2
Fore
SplineSet
630 660 m 1xdb
 630 496 l 1xdb
 504 496 470 436 470 436 c 1
 470 436 610 373 610 294 c 2
 610 60 l 1
 610 60 518 -12 370 -12 c 0
 222 -12 130 34 130 140 c 2
 130 170 l 2
 130 256 291 337 291 448 c 0
 291 524 258 546 258 546 c 1
 195 500 l 1
 130 546 l 1
 130 546 101 528 93 500 c 1
 104 505 121 507 132 507 c 0xed
 193 507 242 460 242 397 c 0
 242 334 193 287 131 287 c 0
 69 287 10 327 10 420 c 0
 10 573 125 612 125 612 c 5
 195 560 l 1
 265 612 l 5
 265 612 350 572 380 479 c 1
 402 558 467 638 630 660 c 1xdb
133 442 m 0xeb
 109 442 88 422 88 397 c 0
 88 372 109 352 133 352 c 0
 158 352 178 372 178 397 c 0
 178 422 158 442 133 442 c 0xeb
389 379 m 1
 378 290 320 238 320 170 c 0xcd
 320 133 341 108 370 108 c 0
 399 108 420 120 420 120 c 1
 420 294 l 2
 420 327 403 361 389 379 c 1
EndSplineSet
EndChar

StartChar: uni0E0A
Encoding: 3594 3594 25
Width: 640
VWidth: 0
Flags: W
HStem: -12 120<319.028 408.245> 307 70<103.321 182.788> 467 65<142 182.437> 496 164<517.168 620> 548 64<143.208 249.252>
VStem: 20 78<382.808 461.571> 120 190<116.248 233.642> 188 64<382.038 461.655> 410 190<110.783 355.814>
LayerCount: 2
Fore
SplineSet
620 660 m 1xd580
 620 496 l 1
 494 496 470 436 470 436 c 1
 470 436 600 373 600 294 c 2
 600 60 l 1
 600 60 508 -12 360 -12 c 0
 212 -12 120 34 120 140 c 2
 120 170 l 2xd680
 120 256 281 337 281 448 c 0
 281 510 232 546 190 548 c 1
 168 548 155 543 142 532 c 1
 203 532 252 485 252 422 c 0
 252 359 203 307 141 307 c 0
 79 307 20 352 20 445 c 0
 20 528 85 612 190 612 c 4xed80
 297 612 352 558 372 484 c 1
 395 561 460 638 620 660 c 1xd580
143 467 m 0xe580
 119 467 98 447 98 422 c 0
 98 397 119 377 143 377 c 0
 168 377 188 397 188 422 c 0
 188 447 168 467 143 467 c 0xe580
379 379 m 1
 368 290 310 238 310 170 c 0xc680
 310 133 331 108 360 108 c 0
 389 108 410 120 410 120 c 1
 410 294 l 2
 410 327 393 361 379 379 c 1
EndSplineSet
EndChar

StartChar: uni0E16
Encoding: 3606 3606 27
Width: 640
VWidth: 0
Flags: W
HStem: -12 75<144.489 235.511> 0 21G<410 600> 492 120<224.213 379.652>
VStem: 60 190<216.095 339.278> 60 75<73.2203 164.242> 245 75<72.4892 164.461> 410 190<0 458.65>
LayerCount: 2
Back
SplineSet
332 618 m 5xb6
 528 618 619 504 620 341 c 5
 620 0 l 5
 440 0 l 5
 440 341 l 6
 440 424 425 498 332 498 c 4
 260 498 205 458 185 437 c 5
 260 400 l 5
 260 238 l 5x76
 307 218 340 172 340 118 c 4
 340 46 282 -12 210 -12 c 4
 138 -12 80 46 80 118 c 6xae
 80 290 l 6
 80 318 92 361 125 380 c 5
 20 429 l 5
 97 550 202 616 332 618 c 5xb6
210 173 m 4
 180 173 155 148 155 118 c 4
 155 88 180 63 210 63 c 4xae
 240 63 265 88 265 118 c 4
 265 148 240 173 210 173 c 4
EndSplineSet
Fore
SplineSet
310 612 m 5xb2
 506 612 599 497 600 334 c 5
 600 0 l 1
 410 0 l 1
 410 334 l 6
 410 417 403 492 310 492 c 4
 238 492 205 452 185 431 c 5
 290 379 l 5
 290 379 250 355 250 324 c 6
 250 233 l 1x72
 292 212 320 168 320 118 c 0
 320 46 262 -12 190 -12 c 0
 118 -12 60 46 60 118 c 2xae
 60 284 l 6
 60 312 92 355 125 374 c 5
 20 423 l 5
 97 544 180 610 310 612 c 5xb2
190 173 m 0
 160 173 135 148 135 118 c 0
 135 88 160 63 190 63 c 0
 220 63 245 88 245 118 c 0xae
 245 148 220 173 190 173 c 0
EndSplineSet
EndChar

StartChar: uni0E21
Encoding: 3617 3617 29
Width: 640
VWidth: 0
Flags: W
HStem: -12 90<108.642 201.358> 188 224<110.252 201.242> 522 90<108.642 201.358>
VStem: 10 90<86.6419 179.066 420.934 513.358> 110 190<259.56 340.44> 210 90<86.758 133 420.758 513.242> 410 190<170 590>
CounterMasks: 1 e0
LayerCount: 2
Back
SplineSet
155 612 m 4xfa
 235 612 300 547 300 467 c 6
 300 253 l 5
 353 224 388 197 410 170 c 5
 410 590 l 5
 600 590 l 5
 600 28 l 5
 600 28 513 -3 430 -12 c 5
 430 -12 381 95 300 133 c 5xf6
 300 53 235 -12 155 -12 c 4
 75 -12 10 53 10 133 c 4
 10 197 52 252 110 271 c 5
 110 329 l 5
 52 348 10 403 10 467 c 4
 10 547 75 612 155 612 c 4xfa
155 522 m 4
 125 522 100 497 100 467 c 4
 100 437 125 412 155 412 c 4
 185 412 210 437 210 467 c 4
 210 497 185 522 155 522 c 4
155 188 m 4
 125 188 100 163 100 133 c 4
 100 103 125 78 155 78 c 4
 185 78 210 103 210 133 c 4
 210 163 185 188 155 188 c 4
EndSplineSet
Fore
SplineSet
155 612 m 0xfa
 235 612 300 547 300 467 c 2
 300 253 l 1
 353 224 388 197 410 170 c 1
 410 590 l 1
 600 590 l 1
 600 28 l 1
 600 28 513 -3 430 -12 c 1
 430 -12 381 95 300 133 c 1xf6
 300 53 235 -12 155 -12 c 0
 75 -12 10 53 10 133 c 0
 10 197 52 252 110 271 c 1
 110 329 l 1
 52 348 10 403 10 467 c 0
 10 547 75 612 155 612 c 0xfa
155 522 m 0
 125 522 100 497 100 467 c 0
 100 437 125 412 155 412 c 0
 185 412 210 437 210 467 c 0
 210 497 185 522 155 522 c 0
155 188 m 0
 125 188 100 163 100 133 c 0
 100 103 125 78 155 78 c 0
 185 78 210 103 210 133 c 0
 210 163 185 188 155 188 c 0
EndSplineSet
EndChar

StartChar: uni0E06
Encoding: 3590 3590 30
Width: 660
VWidth: 0
Flags: W
HStem: -12 90<128.642 221.358> 188 90<128.642 201.758> 293 65<93.3212 172.788> 448 65<93.3008 173.012>
VStem: 10 78<362.639 488.201> 30 90<86.6419 179.358> 178 64<363.345 442.655> 230 90<86.758 133> 291 100<368.523 512.547> 430 190<176 590>
LayerCount: 2
Fore
SplineSet
125 612 m 1xfac0
 195 560 l 1
 265 612 l 1
 265 612 391 552 391 410 c 0xfac0
 391 338 360 289 339 242 c 1
 381 217 411 200 430 176 c 1
 430 590 l 1
 620 590 l 1
 620 34 l 1
 620 34 533 3 450 -6 c 5
 450 -6 401 95 320 133 c 1
 320 53 255 -12 175 -12 c 0
 95 -12 30 53 30 133 c 0xf540
 30 213 95 278 175 278 c 0
 180 278 185 278 190 277 c 1
 236 329 291 383 291 448 c 0
 291 524 258 546 258 546 c 1
 195 500 l 1
 130 546 l 1
 130 546 101 534 93 506 c 1
 104 511 121 513 132 513 c 0
 193 513 242 466 242 403 c 0
 242 340 193 293 131 293 c 0
 69 293 10 333 10 426 c 0
 10 579 125 612 125 612 c 1xfac0
133 448 m 0
 109 448 88 428 88 403 c 0
 88 378 109 358 133 358 c 0
 158 358 178 378 178 403 c 0
 178 428 158 448 133 448 c 0
175 188 m 0
 145 188 120 163 120 133 c 0
 120 103 145 78 175 78 c 0
 205 78 230 103 230 133 c 0xf540
 230 163 205 188 175 188 c 0
EndSplineSet
EndChar

StartChar: uni0E19
Encoding: 3609 3609 33
Width: 670
VWidth: 0
Flags: W
HStem: -12 90<468.735 561.358> 522 90<108.642 201.358>
VStem: 10 90<420.934 513.358> 110 190<170 340.44> 210 90<420.758 513.242> 430 190<255 590> 570 90<86.6419 178.887>
LayerCount: 2
Back
SplineSet
330 170 m 5xf0
 330 170 375 235 460 264 c 5
 460 590 l 5
 650 590 l 5
 650 255 l 5xf4
 634 247 l 5
 668 221 690 179 690 133 c 4
 690 53 625 -12 545 -12 c 4
 471 -12 410 43 401 115 c 5
 339 59 300 -12 300 -12 c 5
 156 -12 140 61 140 205 c 6
 140 295 l 5xf2
 66 309 10 374 10 452 c 4
 10 540 82 612 170 612 c 4
 258 612 330 540 330 452 c 6xe8
 330 170 l 5xf0
170 512 m 4
 137 512 110 485 110 452 c 4
 110 419 137 392 170 392 c 4
 203 392 230 419 230 452 c 4xe8
 230 485 203 512 170 512 c 4
545 188 m 4
 515 188 490 163 490 133 c 4
 490 103 515 78 545 78 c 4
 575 78 600 103 600 133 c 4xe2
 600 163 575 188 545 188 c 4
EndSplineSet
Fore
SplineSet
155 612 m 4xf2
 235 612 300 547 300 467 c 0xe8
 300 368 300 269 300 170 c 1
 300 170 345 235 430 264 c 1
 430 590 l 1
 620 590 l 1
 620 255 l 1xf4
 604 247 l 1
 638 221 660 179 660 133 c 0
 660 53 595 -12 515 -12 c 0
 441 -12 380 43 371 115 c 1
 309 59 270 -12 270 -12 c 1
 126 -12 110 61 110 205 c 2
 110 329 l 1
 52 348 10 403 10 467 c 0
 10 547 75 612 155 612 c 4xf2
155 522 m 0
 125 522 100 497 100 467 c 0
 100 437 125 412 155 412 c 0
 185 412 210 437 210 467 c 0
 210 497 185 522 155 522 c 0
515 188 m 0
 485 188 460 163 460 133 c 0
 460 103 485 78 515 78 c 0
 545 78 570 103 570 133 c 0xe2
 570 163 545 188 515 188 c 0
EndSplineSet
EndChar

StartChar: uni0E2B
Encoding: 3627 3627 34
Width: 680
VWidth: 0
Flags: W
HStem: 0 21G<110 300 430 620> 522 90<108.642 201.358> 537 75<464.489 555.511>
VStem: 10 90<420.934 513.358> 110 190<0 153.597 288 340.44> 210 90<420.758 513.242> 380 75<436.043 527.511> 430 190<0 298> 565 75<436.039 527.511>
LayerCount: 2
Fore
SplineSet
155 612 m 0xd9
 235 612 300 547 300 467 c 2xd4
 300 288 l 1
 312 319 376 378 410 400 c 1
 392 422 380 451 380 482 c 0
 380 554 438 612 510 612 c 4
 582 612 640 554 640 482 c 0xba80
 640 441 620 404 590 380 c 1
 620 360 l 1
 620 0 l 1
 430 0 l 1
 430 298 l 1
 397 272 300 155 300 50 c 2
 300 0 l 1
 110 0 l 1
 110 329 l 1
 52 348 10 403 10 467 c 0
 10 547 75 612 155 612 c 0xd9
510 537 m 0xb280
 480 537 455 512 455 482 c 0
 455 452 480 427 510 427 c 0
 540 427 565 452 565 482 c 0
 565 512 540 537 510 537 c 0xb280
155 522 m 0xd4
 125 522 100 497 100 467 c 0
 100 437 125 412 155 412 c 0
 185 412 210 437 210 467 c 0
 210 497 185 522 155 522 c 0xd4
EndSplineSet
EndChar

StartChar: uni0E23
Encoding: 3619 3619 35
Width: 580
VWidth: 0
Flags: W
HStem: -12 75<294.489 385.511> 492 120<216.738 405.272>
VStem: 210 75<72.4892 164.461> 280 190<216.095 322.287> 395 75<73.2203 164.242>
LayerCount: 2
Fore
SplineSet
290 612 m 0xd0
 378 612 441 571 470 540 c 1
 492 562 550 590 550 590 c 1
 550 480 l 1
 550 480 524 470 470 420 c 1xc8
 414 476 344 492 290 492 c 0
 236 492 190 456 190 424 c 1
 365 404 470 386 470 284 c 2xd0
 470 118 l 6
 470 46 412 -12 340 -12 c 0
 268 -12 210 46 210 118 c 0xe8
 210 168 238 212 280 233 c 1
 280 291 l 2
 280 356 85 354 0 364 c 1
 0 534 170 612 290 612 c 0xd0
340 173 m 0
 310 173 285 148 285 118 c 0xe8
 285 88 310 63 340 63 c 0
 370 63 395 88 395 118 c 0
 395 148 370 173 340 173 c 0
EndSplineSet
EndChar

StartChar: uni0E32
Encoding: 3634 3634 39
Width: 520
VWidth: 0
Flags: W
HStem: 0 21G<290 480> 492 120<81.9766 258.542>
VStem: 290 190<0 457.321>
LayerCount: 2
Back
SplineSet
330 0 m 5
 330 356 l 5
 328 456 301 498 220 498 c 4
 155 498 122 476 50 425 c 5
 0 526 l 5
 71 587 153 618 220 618 c 4
 381 618 520 567 520 356 c 6
 520 0 l 5
 330 0 l 5
EndSplineSet
Fore
SplineSet
290 0 m 1
 290 350 l 1
 288 450 258 492 205 492 c 0
 118 492 78 473 10 420 c 1
 10 540 l 1
 55 575 109 612 205 612 c 0
 397 612 480 522 480 350 c 2
 480 0 l 1
 290 0 l 1
EndSplineSet
EndChar

StartChar: uni0E27
Encoding: 3623 3623 40
Width: 560
VWidth: 0
Flags: W
HStem: -12 75<344.489 435.511> 492 120<99.4331 303.21>
VStem: 260 75<72.4892 164.461> 330 190<216.095 459.687> 445 75<73.2203 164.242>
LayerCount: 2
Back
SplineSet
220 618 m 4xd0
 381 618 520 567 520 356 c 4xd0
 520 277 520 197 520 118 c 4
 520 46 462 -12 390 -12 c 4
 318 -12 260 46 260 118 c 4xe8
 260 168 288 212 330 233 c 5
 330 274 330 315 330 356 c 4
 328 456 301 498 220 498 c 4
 155 498 122 476 50 425 c 5
 0 526 l 5
 71 587 153 618 220 618 c 4xd0
390 173 m 4
 360 173 335 148 335 118 c 4
 335 88 360 63 390 63 c 4
 420 63 445 88 445 118 c 4xe8
 445 148 420 173 390 173 c 4
EndSplineSet
Fore
SplineSet
230 612 m 0xd0
 391 612 520 561 520 350 c 2xd0
 520 118 l 2
 520 46 462 -12 390 -12 c 0
 318 -12 260 46 260 118 c 0xe8
 260 168 288 212 330 233 c 1
 330 350 l 1
 328 450 311 492 230 492 c 0
 143 492 88 467 20 420 c 1
 20 540 l 5
 65 575 134 612 230 612 c 0xd0
390 173 m 0
 360 173 335 148 335 118 c 0
 335 88 360 63 390 63 c 0
 420 63 445 88 445 118 c 0xe8
 445 148 420 173 390 173 c 0
EndSplineSet
EndChar

StartChar: uni0E4E
Encoding: 3662 3662 43
Width: 0
VWidth: 0
Flags: W
HStem: 678 85<-456.474 -410> 883 85<-456.474 -410> 1028 85<-312.683 -217.317>
VStem: -555 85<775.317 870.683> -410 85<968 1014.47> -205 85<968 1014.47>
LayerCount: 2
Fore
SplineSet
-265 1113 m 4
 -185 1113 -120 1048 -120 968 c 5
 -205 968 l 5
 -205 1001 -232 1028 -265 1028 c 4
 -298 1028 -325 1001 -325 968 c 4
 -325 945 -304 923 -304 923 c 5
 -269 888 l 5
 -329 828 l 5
 -342 840 -355 852 -365 862 c 5
 -376 875 -392 883 -410 883 c 4
 -443 883 -470 856 -470 823 c 4
 -470 790 -443 763 -410 763 c 5
 -410 678 l 5
 -490 678 -555 743 -555 823 c 4
 -555 903 -490 968 -410 968 c 5
 -410 1048 -345 1113 -265 1113 c 4
EndSplineSet
EndChar

StartChar: uni0E48.rp
Encoding: 63242 63242 44
Width: 0
VWidth: 0
Flags: W
HStem: 680 250<-220 -70>
VStem: -220 150<680 930>
AnchorPoint: "UpperVowel" 0 -320 mark 0
LayerCount: 2
Fore
SplineSet
-220 930 m 5
 -70 930 l 5
 -70 680 l 5
 -220 680 l 5
 -220 930 l 5
EndSplineSet
EndChar

StartChar: uni0E49.rp
Encoding: 63243 63243 45
Width: 0
VWidth: 0
Flags: W
HStem: 668 92<-330 -271.767> 892 50<-457.075 -383.086>
VStem: -510 50<815.474 889.189> -380 68<815.07 887.595> -200 130<838.075 930>
AnchorPoint: "UpperVowel" -120 -320 mark 0
LayerCount: 2
Fore
SplineSet
-420 942 m 0
 -371 942 -316 908 -312 852 c 0
 -312 850 -312 847 -312 844 c 0
 -312 812 -323 776 -330 760 c 1
 -254 760 -200 858 -200 930 c 1
 -70 930 l 1
 -70 835 -135 668 -356 668 c 4
 -396 668 -449 677 -491 694 c 1
 -461 715 -444 733 -433 762 c 1
 -476 765 -510 804 -510 852 c 0
 -510 902 -470 942 -420 942 c 0
-420 892 m 0
 -443 892 -460 874 -460 852 c 0
 -460 830 -443 812 -420 812 c 0
 -398 812 -380 830 -380 852 c 0
 -380 874 -398 892 -420 892 c 0
EndSplineSet
EndChar

StartChar: uni0E4A.rp
Encoding: 63244 63244 46
Width: 0
VWidth: 0
Flags: W
HStem: 668 60<-255 -227> 668 50<-398.911 -324.925> 798 50<-376.72 -325.719> 885 52<-375.554 -319.845 -278.109 -219.811>
VStem: -470 68<721.058 810.5> -322 50<720.811 794.76 850 884.948> -209 89<767.769 882.161> -85 115<789.009 930>
AnchorPoint: "UpperVowel" -60 -320 mark 0
LayerCount: 2
Fore
SplineSet
-359 937 m 4x7f
 -333 937 -315 928 -299 911 c 5
 -283 928 -265 937 -239 937 c 4
 -186 937 -155 909 -138 874 c 4
 -127 851 -120 826 -120 802 c 4
 -120 790 -122 778 -126 767 c 5
 -94 789 -85 864 -85 930 c 5
 30 930 l 5
 28 822 9 668 -226 668 c 4
 -271 668 l 5x7f
 -255 728 l 5xbf
 -227 734 l 4
 -214 743 -209 769 -209 796 c 4
 -209 816 -212 836 -216 848 c 4
 -221 864 -224 885 -248 885 c 4
 -271 885 -279 867 -279 850 c 5
 -319 850 l 5
 -319 867 -326 885 -349 885 c 4
 -373 885 -377 860 -377 846 c 5
 -373 848 -367 848 -362 848 c 4
 -311 848 -272 806 -272 758 c 4
 -272 708 -312 668 -362 668 c 4
 -411 668 -452 697 -465 748 c 4
 -468 759 -470 781 -470 798 c 4
 -470 823 -462 859 -455 874 c 4
 -437 910 -412 937 -359 937 c 4x7f
-362 798 m 4
 -384 798 -402 780 -402 758 c 4
 -402 736 -384 718 -362 718 c 4
 -339 718 -322 736 -322 758 c 4
 -322 780 -339 798 -362 798 c 4
EndSplineSet
EndChar

StartChar: uni0E4B.rp
Encoding: 63245 63245 47
Width: 0
VWidth: 0
Flags: W
HStem: 680 250<-215 -65> 765 80<-290 -215 -65 10>
VStem: -215 150<680 765 845 930>
AnchorPoint: "UpperVowel" -50 -320 mark 0
LayerCount: 2
Fore
SplineSet
-215 930 m 5xa0
 -65 930 l 5xa0
 -65 845 l 5
 10 845 l 5
 10 765 l 5
 -65 765 l 5x60
 -65 680 l 5
 -215 680 l 5xa0
 -215 765 l 5
 -290 765 l 5
 -290 845 l 5
 -215 845 l 5x60
 -215 930 l 5xa0
EndSplineSet
EndChar

StartChar: uni0E4C.rp
Encoding: 63246 63246 48
Width: 0
VWidth: 0
Flags: W
HStem: 668 65<-199.868 -119.488>
VStem: -280 75<737.488 818.224> -115 65<737.488 818.266>
AnchorPoint: "UpperVowel" 110 -270 mark 0
LayerCount: 2
Fore
SplineSet
-10 1000 m 5
 130 1000 l 5
 130 875 15 853 -83 852 c 5
 -70 840 -50 817 -50 778 c 4
 -50 717 -99 668 -160 668 c 4
 -221 668 -280 717 -280 778 c 4
 -280 832 -250 885 -166 908 c 4
 -82 930 -10 937 -10 1000 c 5
-160 823 m 4
 -185 823 -205 803 -205 778 c 4
 -205 753 -185 733 -160 733 c 4
 -135 733 -115 753 -115 778 c 4
 -115 803 -135 823 -160 823 c 4
EndSplineSet
EndChar

StartChar: uni0E4D.rp
Encoding: 63249 63249 53
Width: 0
VWidth: 0
Flags: W
HStem: 670 85<-192.683 -97.3168> 875 85<-192.683 -97.3168>
VStem: -290 85<767.317 862.683> -85 85<767.317 862.683>
AnchorPoint: "UpperVowel" 0 0 basemark 0
LayerCount: 2
Fore
SplineSet
-145 960 m 4
 -65 960 0 895 0 815 c 4
 0 735 -65 670 -145 670 c 4
 -225 670 -290 735 -290 815 c 4
 -290 895 -225 960 -145 960 c 4
-145 875 m 4
 -178 875 -205 848 -205 815 c 4
 -205 782 -178 755 -145 755 c 4
 -112 755 -85 782 -85 815 c 4
 -85 848 -112 875 -145 875 c 4
EndSplineSet
EndChar

StartChar: uni0E34.rp
Encoding: 63233 63233 54
Width: 0
VWidth: 0
Flags: W
HStem: 690 60<-455 -215> 812 100<-426.028 -258.445>
AnchorPoint: "UpperVowel" 0 0 basemark 0
LayerCount: 2
Fore
SplineSet
-600 690 m 5
 -600 807 -518 912 -355 912 c 5
 -215 907 -119 811 -70 690 c 5
 -600 690 l 5
-355 812 m 4
 -406 812 -438 782 -455 750 c 5
 -215 750 l 5
 -253 788 -289 812 -355 812 c 4
EndSplineSet
EndChar

StartChar: uni0E35.rp
Encoding: 63234 63234 55
Width: 0
VWidth: 0
Flags: W
HStem: 690 60<-455 -215> 812 100<-426.028 -258.599>
AnchorPoint: "UpperVowel" 0 0 basemark 0
LayerCount: 2
Fore
SplineSet
-230 950 m 1
 -70 950 l 5
 -70 690 l 1
 -70 690 -423 690 -600 690 c 1
 -600 807 -518 912 -355 912 c 1
 -269 909 -200 872 -148 816 c 1
 -230 950 l 1
-355 812 m 0
 -406 812 -438 782 -455 750 c 1
 -215 750 l 1
 -253 788 -289 812 -355 812 c 0
EndSplineSet
EndChar

StartChar: uni0E36.rp
Encoding: 63235 63235 56
Width: 0
VWidth: 0
Flags: W
HStem: 690 117<-189.61 -108.605> 690 60<-444 -204> 812 100<-415.59 -249.977> 897 65<-189.155 -109.084>
VStem: -590 396<690 852> -104 64<812.054 892.512>
AnchorPoint: "UpperVowel" 0 0 basemark 0
LayerCount: 2
Fore
SplineSet
-150 962 m 4x1c
 -89 962 -40 913 -40 852 c 4
 -40 812 -61 776 -93 757 c 5
 -80 736 -69 713 -60 690 c 5
 -590 690 l 5
 -590 807 -508 912 -344 912 c 5x6c
 -311 911 -280 904 -251 893 c 5
 -235 934 -196 962 -150 962 c 4x1c
-150 897 m 4x9c
 -174 897 -194 877 -194 852 c 4
 -194 827 -174 807 -150 807 c 4
 -125 807 -104 827 -104 852 c 4
 -104 877 -125 897 -150 897 c 4x9c
-344 812 m 4x6c
 -396 812 -428 782 -444 750 c 5
 -204 750 l 5
 -242 788 -278 812 -344 812 c 4x6c
EndSplineSet
EndChar

StartChar: uni0E37.rp
Encoding: 63236 63236 57
Width: 0
VWidth: 0
Flags: W
HStem: 690 60<-455 -218> 812 100<-426.028 -289.381>
VStem: -170 100<840 950>
AnchorPoint: "UpperVowel" 0 0 basemark 0
LayerCount: 2
Fore
SplineSet
-600 690 m 5
 -600 807 -518 912 -355 912 c 4
 -331 911 -309 908 -288 902 c 5
 -345 950 l 5
 -210 950 l 5
 -210 870 l 5
 -170 840 l 5
 -170 950 l 5
 -70 950 l 5
 -70 690 l 5
 -600 690 l 5
-355 812 m 4
 -406 812 -438 782 -455 750 c 5
 -218 750 l 5
 -220 755 l 5
 -256 790 -292 812 -355 812 c 4
EndSplineSet
EndChar

StartChar: uni0E31.rp
Encoding: 63248 63248 58
Width: 0
VWidth: 0
Flags: W
HStem: 668 100<-234.625 -120.117> 875 65<-370.512 -289.488>
VStem: -440 65<790.148 870.512> -285 65<789.29 870.512>
AnchorPoint: "UpperVowel" 0 0 basemark 0
LayerCount: 2
Fore
SplineSet
-330 940 m 4
 -269 940 -220 891 -220 830 c 4
 -220 810 -225 791 -235 775 c 5
 -223 771 -210 768 -195 768 c 4
 -118 769 -78 831 -60 890 c 5
 90 890 l 5
 41 769 -51 668 -195 668 c 4
 -297 668 -440 718 -440 830 c 4
 -440 891 -391 940 -330 940 c 4
-330 875 m 4
 -355 875 -375 855 -375 830 c 4
 -375 805 -355 785 -330 785 c 4
 -305 785 -285 805 -285 830 c 4
 -285 855 -305 875 -330 875 c 4
EndSplineSet
EndChar

StartChar: uni0E47.rp
Encoding: 63250 63250 59
Width: 0
VWidth: 0
Flags: W
HStem: 690 85<-463.863 -386.58> 690 60<-212.121 -137.545> 830 50<-211 -139> 895 75<-415.665 -191.88> 910 85<-463.298 -220.665>
VStem: -595 120<782.137 898.724> -376 60<789.317 848> -265 50<772.49 826> -140 120<1016.95 1100> -135 50<754.116 826>
LayerCount: 2
Fore
SplineSet
-140 1100 m 5x3780
 -20 1100 l 5
 -20 1042 -40 995 -88 956 c 4
 -146 909 -198 895 -277 895 c 4x3780
 -330 895 -347 910 -419 910 c 4
 -444 910 -475 889 -475 845 c 4
 -475 802 -452 775 -430 775 c 4xaf80
 -402 775 -376 796 -376 848 c 5
 -316 848 l 5
 -316 796 -285 786 -263 772 c 5
 -264 778 -265 784 -265 790 c 4
 -265 840 -225 880 -175 880 c 4
 -125 880 -85 840 -85 790 c 4
 -85 739 -125 690 -200 690 c 4x6740
 -262 690 -330 713 -343 737 c 5
 -358 712 -397 690 -445 690 c 4
 -541 690 -595 770 -595 845 c 4
 -595 921 -526 995 -432 995 c 4xaf40
 -362 995 -331 970 -287 970 c 4
 -283 970 -279 970 -276 970 c 4
 -236 970 -224.679 976.431 -196 993 c 4
 -151 1019 -140 1053 -140 1100 c 5x3780
-175 830 m 4
 -197 830 -215 812 -215 790 c 4
 -215 768 -197 750 -175 750 c 4
 -153 750 -135 768 -135 790 c 4x6740
 -135 812 -153 830 -175 830 c 4
EndSplineSet
EndChar

StartChar: uni0E38.rp
Encoding: 63256 63256 60
Width: 0
VWidth: 0
Flags: W
HStem: -400 181<-199.598 -119.412> -129 75<-199.485 -120.515>
VStem: -280 75<-214.066 -134.515> -200 160<-400 -275.086> -115 75<-214.588 -135.619>
LayerCount: 2
Back
SplineSet
-160 -58 m 4xf0
 -99 -58 -50 -107 -50 -168 c 6xe8
 -50 -380 l 5
 -190 -380 l 5
 -190 -274 l 5
 -236 -261 -270 -218 -270 -168 c 4
 -270 -107 -221 -58 -160 -58 c 4xf0
-160 -123 m 4
 -185 -123 -205 -143 -205 -168 c 4
 -205 -193 -185 -213 -160 -213 c 4
 -135 -213 -115 -193 -115 -168 c 4
 -115 -143 -135 -123 -160 -123 c 4
EndSplineSet
Fore
SplineSet
-160 -54 m 4xf0
 -94 -54 -40 -108 -40 -174 c 6xe8
 -40 -400 l 5
 -200 -400 l 5
 -200 -287 l 5
 -247 -271 -280 -226 -280 -174 c 4
 -280 -108 -226 -54 -160 -54 c 4xf0
-160 -129 m 4
 -185 -129 -205 -149 -205 -174 c 4
 -205 -199 -185 -219 -160 -219 c 4
 -135 -219 -115 -199 -115 -174 c 4
 -115 -149 -135 -129 -160 -129 c 4
EndSplineSet
EndChar

StartChar: uni0E39.rp
Encoding: 63257 63257 61
Width: 0
VWidth: 0
Flags: W
HStem: -406 80<-237.017 -182.047> -129 75<-399.484 -320.516>
VStem: -480 75<-214.088 -134.515> -315 75<-214.588 -135.619> -180 140<-325.879 -70>
LayerCount: 2
Back
SplineSet
-340 -58 m 4xf4
 -278 -58 -230 -107 -230 -168 c 6xec
 -230 -270 l 6
 -230 -300 -223 -317 -200 -317 c 4
 -182 -317 -170 -310 -170 -310 c 5
 -170 -70 l 5
 -50 -70 l 5
 -50 -355 l 5
 -50 -355 -106 -392 -200 -392 c 4
 -293 -392 -350 -369 -350 -300 c 6
 -350 -274 l 5
 -415 -267 -450 -218 -450 -168 c 4
 -450 -107 -400 -58 -340 -58 c 4xf4
-340 -123 m 4
 -364 -123 -384 -143 -384 -168 c 4
 -384 -193 -364 -213 -340 -213 c 4
 -314 -213 -294 -193 -294 -168 c 4
 -294 -143 -314 -123 -340 -123 c 4
EndSplineSet
Fore
SplineSet
-360 -54 m 4
 -294 -54 -240 -108 -240 -174 c 2
 -240 -279 l 2
 -240 -309 -233 -326 -210 -326 c 0
 -192 -326 -180 -319 -180 -319 c 1
 -180 -70 l 1
 -40 -70 l 1
 -40 -369 l 1
 -40 -369 -116 -406 -210 -406 c 0
 -303 -406 -380 -383 -380 -314 c 2
 -380 -292 l 1
 -437 -283 -480 -233 -480 -174 c 0
 -480 -108 -426 -54 -360 -54 c 4
-360 -129 m 0
 -385 -129 -405 -149 -405 -174 c 0
 -405 -199 -385 -219 -360 -219 c 0
 -335 -219 -315 -199 -315 -174 c 0
 -315 -149 -335 -129 -360 -129 c 0
EndSplineSet
EndChar

StartChar: uni0E3A.rp
Encoding: 63258 63258 62
Width: 0
VWidth: 0
Flags: HW
HStem: -258 200<-217.147 -82.8529>
VStem: -250 200<-225.147 -90.8529>
LayerCount: 2
Fore
SplineSet
-50 -154 m 0
 -50 -209 -95 -254 -150 -254 c 0
 -205 -254 -250 -209 -250 -154 c 0
 -250 -99 -205 -54 -150 -54 c 4
 -95 -54 -50 -99 -50 -154 c 0
EndSplineSet
EndChar

StartChar: uni0E1D
Encoding: 3613 3613 71
Width: 680
VWidth: 0
Flags: W
HStem: 522 90<118.642 211.358>
VStem: 20 190<152.514 340.44> 20 90<420.758 513.242> 220 90<420.934 513.358> 450 190<150 860>
LayerCount: 2
Fore
SplineSet
165 612 m 0xb8
 245 612 310 547 310 467 c 0
 310 403 268 348 210 329 c 1
 210 150 l 5
 290 350 l 1
 370 350 l 1
 450 150 l 5
 450 860 l 1
 640 860 l 1
 640 38 l 1
 640 38 585 -12 440 -12 c 1
 330 240 l 1
 220 -12 l 1
 61 -12 20 1 20 205 c 2xd8
 20 467 l 2
 20 547 85 612 165 612 c 0xb8
165 522 m 0
 135 522 110 497 110 467 c 0xb8
 110 437 135 412 165 412 c 0
 195 412 220 437 220 467 c 0
 220 497 195 522 165 522 c 0
EndSplineSet
EndChar

StartChar: uni0E1F
Encoding: 3615 3615 72
Width: 760
VWidth: 0
Flags: W
HStem: 522 90<98.6419 191.358>
VStem: 0 90<420.934 513.358> 100 190<122.685 340.44> 200 90<420.758 513.242> 530 190<120 860>
LayerCount: 2
Fore
SplineSet
145 612 m 0xe8
 225 612 290 547 290 467 c 2
 290 120 l 5xd8
 360 540 l 1
 460 540 l 1
 530 120 l 5
 530 860 l 1
 720 860 l 1
 720 38 l 1
 720 38 625 -12 480 -12 c 1
 410 360 l 1
 340 -12 l 1
 181 -12 100 1 100 205 c 2
 100 329 l 1
 42 348 0 403 0 467 c 0
 0 547 65 612 145 612 c 0xe8
145 522 m 0
 115 522 90 497 90 467 c 0
 90 437 115 412 145 412 c 0
 175 412 200 437 200 467 c 0
 200 497 175 522 145 522 c 0
EndSplineSet
EndChar

StartChar: uni0E04
Encoding: 3588 3588 73
Width: 660
VWidth: 0
Flags: W
HStem: 0 21G<60 232.222 440 620> 210 65<264.361 345.512> 365 65<265.234 345.456> 492 120<234.627 392.696>
VStem: 20 150<293.337 426.764> 60 170<0 211.112> 350 65<279.488 360.512> 440 180<0 439.837>
LayerCount: 2
Back
SplineSet
315 618 m 4xf980
 506 618 609 531 610 320 c 5
 610 0 l 5
 430 0 l 5
 430 300 l 6
 430 400 415 498 305 498 c 4
 183 498 153 405 153 317 c 4
 153 274 167 251 174 220 c 5
 174 225 174 229 174 233 c 4xfb80
 174 364 217 430 300 430 c 4
 367 430 410 381 410 320 c 4
 410 259 361 210 300 210 c 4
 268 210 250 225 250 225 c 5
 250 225 235 202 235 0 c 5
 45 0 l 5xf580
 45 160 10 189 10 335 c 4
 10 511 124 618 315 618 c 4xf980
300 365 m 4
 275 365 255 345 255 320 c 4
 255 295 275 275 300 275 c 4
 325 275 345 295 345 320 c 4
 345 345 325 365 300 365 c 4
EndSplineSet
Fore
SplineSet
315 612 m 0xfb
 511 612 619 497 620 334 c 1
 620 0 l 1
 440 0 l 1
 440 334 l 2
 440 417 408 492 315 492 c 0
 222 492 170 417 170 334 c 0xfb
 170 316 171 306 173 292 c 1
 196 364 235 430 305 430 c 0
 372 430 415 381 415 320 c 0
 415 259 366 210 305 210 c 0
 273 210 255 225 255 225 c 1
 236 208 230 0 230 0 c 1
 60 0 l 1xf7
 60 188 20 200 20 334 c 0
 21 497 119 612 315 612 c 0xfb
305 365 m 0
 280 365 260 345 260 320 c 0
 260 295 280 275 305 275 c 0
 330 275 350 295 350 320 c 0
 350 345 330 365 305 365 c 0
EndSplineSet
EndChar

StartChar: uni0E05
Encoding: 3589 3589 74
Width: 660
VWidth: 0
Flags: W
HStem: 0 21G<60 232.222 440 620> 210 65<264.361 345.512> 365 65<265.248 345.456>
VStem: 20 150<309.4 478.176> 60 170<0 214.946> 350 65<279.488 360.512> 440 180<0 482.604>
LayerCount: 2
Back
SplineSet
205 618 m 5xf6
 305 548 l 5
 405 618 l 5
 508 593 608 549 610 394 c 5
 610 0 l 5
 430 0 l 5
 430 394 l 6
 430 466 416 500 395 521 c 5
 305 458 l 5
 215 521 l 5
 165 504 148 419 148 317 c 4xf6
 148 284 152 251 159 220 c 5
 176 354 214 430 300 430 c 4
 367 430 410 381 410 320 c 4
 410 259 361 210 300 210 c 4
 268 210 250 225 250 225 c 5
 250 225 235 202 235 0 c 5
 45 0 l 5xee
 45 160 20 189 20 335 c 4
 20 510 94 582 205 618 c 5xf6
300 365 m 4
 275 365 255 345 255 320 c 4
 255 295 275 275 300 275 c 4
 325 275 345 295 345 320 c 4
 345 345 325 365 300 365 c 4
EndSplineSet
Fore
SplineSet
200 612 m 5xf6
 315 538 l 5
 430 612 l 5
 586 570 619 461 620 340 c 6
 620 0 l 5
 440 0 l 5
 440 390 l 6
 440 458 430 488 400 504 c 5
 315 454 l 5
 220 504 l 5
 188 481 170 439 170 390 c 4xf6
 170 360 173 333 178 307 c 5
 202 372 240 430 305 430 c 4
 372 430 415 381 415 320 c 4
 415 259 366 210 305 210 c 4
 273 210 255 225 255 225 c 5
 236 208 230 0 230 0 c 5
 60 0 l 5xee
 60 188 20 206 20 340 c 4
 21 461 65 569 200 612 c 5xf6
305 365 m 4
 280 365 260 345 260 320 c 4
 260 295 280 275 305 275 c 4
 330 275 350 295 350 320 c 4
 350 345 330 365 305 365 c 4
EndSplineSet
EndChar

StartChar: uni0E07
Encoding: 3591 3591 75
Width: 580
VWidth: 0
Flags: W
HStem: 522 90<348.642 441.358>
VStem: 250 90<420.934 513.358> 350 190<140 340.44> 450 90<420.758 513.242>
LayerCount: 2
Fore
SplineSet
395 612 m 0xe0
 475 612 540 547 540 467 c 2
 540 38 l 1xd0
 540 38 421 -12 300 -12 c 1
 183 190 40 295 40 295 c 1
 40 470 l 1
 40 470 248 316 350 140 c 1
 350 329 l 1
 292 348 250 403 250 467 c 0
 250 547 315 612 395 612 c 0xe0
395 522 m 0
 365 522 340 497 340 467 c 0
 340 437 365 412 395 412 c 0
 425 412 450 437 450 467 c 0
 450 497 425 522 395 522 c 0
EndSplineSet
EndChar

StartChar: uni0E08
Encoding: 3592 3592 76
Width: 590
VWidth: 0
Flags: W
HStem: 170 75<154.489 246.422> 355 75<154.489 245.997> 492 120<103.723 335.866>
VStem: 70 75<254.489 345.511> 380 170<208.8 445.171>
LayerCount: 2
Back
SplineSet
250 618 m 4
 411 618 570 567 570 356 c 6
 570 36 l 5
 570 36 489 -12 370 -12 c 5
 370 -12 349 139 291 191 c 5
 271 178 246 170 220 170 c 4
 148 170 90 228 90 300 c 4
 90 372 148 430 220 430 c 4
 250 430 289 416 314 394 c 4
 389 327 400 217 410 180 c 5
 400 366 l 6
 393.627 484.543 331 498 250 498 c 4
 185 498 131 476 61 425 c 5
 10 526 l 5
 67 582 183 618 250 618 c 4
220 355 m 4
 190 355 165 330 165 300 c 4
 165 270 190 245 220 245 c 4
 250 245 275 270 275 300 c 4
 275 330 250 355 220 355 c 4
EndSplineSet
Fore
SplineSet
230 612 m 4
 391 612 550 561 550 350 c 6
 550 36 l 1
 550 36 469 -12 350 -12 c 1
 350 -12 329 139 271 191 c 1
 251 178 226 170 200 170 c 0
 128 170 70 228 70 300 c 0
 70 372 128 430 200 430 c 0
 230 430 269 416 294 394 c 0
 369 327 380 217 390 180 c 1
 380 360 l 6
 374 479 311 492 230 492 c 4
 165 492 90 471 20 420 c 1
 20 540 l 1
 77 591 163 612 230 612 c 4
200 355 m 0
 170 355 145 330 145 300 c 0
 145 270 170 245 200 245 c 0
 230 245 255 270 255 300 c 0
 255 330 230 355 200 355 c 0
EndSplineSet
EndChar

StartChar: uni0E09
Encoding: 3593 3593 77
Width: 630
VWidth: 0
Flags: HW
HStem: -18 90<438.723 531.358> 355 75<124.489 215.511> 492 120<121.47 352.789>
VStem: 40 75<253.647 345.511> 225 75<253.758 344.78> 400 190<249 439.641> 540 90<80.6419 172.887>
LayerCount: 2
Back
SplineSet
290 624 m 4xfc
 451 624 590 567 590 356 c 6
 590 249 l 5xfc
 574 241 l 5
 608 215 630 173 630 127 c 4xfa
 630 47 565 -18 485 -18 c 4
 420 -18 366 24 347 83 c 5
 316 65 274 26 250 -12 c 5
 141 -12 112 50 110 94 c 5
 110 185 l 5
 68 207 40 250 40 300 c 4
 40 372 98 430 170 430 c 4
 242 430 300 372 300 300 c 4
 300 262 300 193 300 160 c 5
 300 160 350 209 400 240 c 5
 400 356 l 5
 398 456 371 504 290 504 c 4
 211 504 145 498 50 436 c 5
 0 531 l 5
 92 601 200 624 290 624 c 4xfc
170 355 m 4
 140 355 115 330 115 300 c 4
 115 270 140 245 170 245 c 4
 200 245 225 270 225 300 c 4
 225 330 200 355 170 355 c 4
485 182 m 4
 455 182 430 157 430 127 c 4
 430 97 455 72 485 72 c 4
 515 72 540 97 540 127 c 4xfa
 540 157 515 182 485 182 c 4
EndSplineSet
Fore
SplineSet
270 618 m 4xfc
 431 618 590 555 590 344 c 2
 590 249 l 1xfc
 574 241 l 1
 608 215 630 173 630 127 c 0xfa
 630 47 565 -18 485 -18 c 0
 420 -18 366 24 347 83 c 1
 316 65 274 26 250 -12 c 1
 141 -12 112 50 110 94 c 1
 110 185 l 1
 68 207 40 250 40 300 c 0
 40 372 98 430 170 430 c 0
 242 430 300 372 300 300 c 2
 300 150 l 1
 300 150 354 218 400 240 c 1
 400 344 l 1
 398 444 351 498 270 498 c 4
 199 498 102 469 20 420 c 1
 20 540 l 1
 101 586 180 618 270 618 c 4xfc
170 355 m 0
 140 355 115 330 115 300 c 0
 115 270 140 245 170 245 c 0
 200 245 225 270 225 300 c 0
 225 330 200 355 170 355 c 0
485 182 m 0
 455 182 430 157 430 127 c 0
 430 97 455 72 485 72 c 0
 515 72 540 97 540 127 c 0xfa
 540 157 515 182 485 182 c 0
EndSplineSet
EndChar

StartChar: uni0E0C
Encoding: 3596 3596 78
Width: 940
VWidth: 0
Flags: W
HStem: -12 75<144.489 235.511 454.489 545.488> 492 120<224.213 379.652>
VStem: 60 190<216.095 339.278> 60 75<73.2203 164.242> 245 75<72.4892 164.461> 370 75<72.4892 164.394> 410 190<234 458.65> 710 190<150 590>
LayerCount: 2
Fore
SplineSet
310 612 m 5xe1
 506 612 599 497 600 334 c 5
 600 225 l 1xe3
 652 202 692 169 710 150 c 1
 710 590 l 1
 900 590 l 1
 900 28 l 1
 900 28 813 -3 730 -12 c 1
 730 -12 684 53 627 92 c 1
 615 32 563 -12 500 -12 c 0
 428 -12 370 46 370 118 c 0xc5
 370 162 392 200 425 224 c 1
 410 234 l 1
 410 334 l 6
 410 417 403 492 310 492 c 4
 238 492 205 452 185 431 c 5
 290 379 l 5
 290 379 250 355 250 324 c 6
 250 233 l 1xe3
 292 212 320 168 320 118 c 0
 320 46 262 -12 190 -12 c 0
 118 -12 60 46 60 118 c 2xd9
 60 284 l 6
 60 312 92 355 125 374 c 5
 20 423 l 5
 97 544 180 610 310 612 c 5xe1
190 173 m 0
 160 173 135 148 135 118 c 0
 135 88 160 63 190 63 c 0
 220 63 245 88 245 118 c 0xd9
 245 148 220 173 190 173 c 0
500 173 m 0
 470 173 445 148 445 118 c 0xc5
 445 88 470 63 500 63 c 0
 530 63 555 88 555 118 c 0
 555 148 530 173 500 173 c 0
EndSplineSet
EndChar

StartChar: uni0E0E
Encoding: 3598 3598 79
Width: 640
VWidth: 0
Flags: W
HStem: -302 60<132.437 206.954> -162 60<132.726 207.549> -12 75<94.4892 185.511> 492 120<224.213 379.652>
VStem: 10 75<72.4892 164.461> 70 60<-239.068 -164.932> 80 190<216.095 358.22> 195 75<73.2203 164.242> 270 90<-113.294 -60> 410 190<-202 458.65>
LayerCount: 2
Fore
SplineSet
310 612 m 5xf240
 506 612 599 497 600 334 c 5
 600 -230 l 1
 600 -230 515 -288 410 -302 c 1
 410 -302 358 -250 299 -215 c 1
 290 -229 280 -242 270 -254 c 0
 248 -281 222 -302 170 -302 c 0
 118 -302 70 -257 70 -202 c 0
 70 -147 114 -102 170 -102 c 0
 203 -102 224 -105 262 -114 c 1
 266 -99 270 -80 270 -60 c 1
 360 -60 l 1xf4c0
 360 -88 351 -117 339 -146 c 1
 386 -173 410 -202 410 -202 c 1
 410 334 l 6
 410 417 403 492 310 492 c 4
 238 492 205 452 185 431 c 5
 290 379 l 5
 290 379 270 355 270 324 c 6xf240
 270 118 l 2
 270 46 212 -12 140 -12 c 0
 68 -12 10 46 10 118 c 0xf940
 10 168 38 212 80 233 c 1
 80 284 l 6
 80 312 92 355 125 374 c 5
 20 423 l 5
 97 544 180 610 310 612 c 5xf240
140 173 m 0
 110 173 85 148 85 118 c 0
 85 88 110 63 140 63 c 0
 170 63 195 88 195 118 c 0xf940
 195 148 170 173 140 173 c 0
170 -162 m 0
 148 -162 130 -180 130 -202 c 0xf440
 130 -224 148 -242 170 -242 c 0
 192 -242 210 -224 210 -202 c 0
 210 -180 192 -162 170 -162 c 0
EndSplineSet
EndChar

StartChar: uni0E0F
Encoding: 3599 3599 80
Width: 640
VWidth: 0
Flags: W
HStem: -302 60<132.437 206.721> -162 60<132.932 207.27> -12 75<94.4892 185.511> 492 120<224.213 379.652>
VStem: 10 75<72.4892 164.461> 70 60<-239.068 -164.932> 80 190<216.095 358.22> 195 75<73.2203 164.242> 270 90<-139.835 -60> 410 190<-202 458.65>
LayerCount: 2
Fore
SplineSet
310 612 m 5xf240
 506 612 599 497 600 334 c 1
 600 144 600 -40 600 -230 c 1
 600 -230 515 -288 410 -302 c 1
 360 -252 l 1
 310 -302 l 1
 270 -254 l 1
 245 -279 222 -302 170 -302 c 0
 118 -302 70 -257 70 -202 c 0
 70 -147 115 -102 170 -102 c 0
 202 -102 231 -117 249 -141 c 1
 257 -131 270 -98 270 -60 c 1
 360 -60 l 1
 360 -111 340 -159 310 -197 c 1
 360 -152 l 1xf4c0
 410 -202 l 1
 410 -21 410 153 410 334 c 0
 410 417 403 492 310 492 c 0
 238 492 205 452 185 431 c 1
 290 379 l 1
 290 379 270 355 270 324 c 2xf240
 270 118 l 2
 270 46 212 -12 140 -12 c 0
 68 -12 10 46 10 118 c 0xf940
 10 168 38 212 80 233 c 1
 80 284 l 2
 80 312 92 355 125 374 c 1
 20 423 l 1
 97 544 180 610 310 612 c 5xf240
140 173 m 0
 110 173 85 148 85 118 c 0
 85 88 110 63 140 63 c 0
 170 63 195 88 195 118 c 0xf940
 195 148 170 173 140 173 c 0
170 -162 m 0
 148 -162 130 -180 130 -202 c 0xf440
 130 -224 148 -242 170 -242 c 0
 192 -242 210 -224 210 -202 c 0
 210 -180 192 -162 170 -162 c 0
EndSplineSet
EndChar

StartChar: uni0E10
Encoding: 3600 3600 81
Width: 580
VWidth: 0
Flags: W
HStem: -302 108<402.437 469.105> -302 60<62.4375 136.721> -162 60<62.9321 137.27> -114 60<402.932 477.068> 94 65<139.488 220.15> 249 65<139.488 219.882> 492 120<226.738 415.272>
VStem: 0 60<-239.068 -164.932> 70 65<163.488 244.512> 200 90<-139.835 -60> 330 190<16.9536 56.2682 154 322.287> 340 60<-191.434 -116.932> 480 60<-189.558 -116.932>
LayerCount: 2
Fore
SplineSet
440 -54 m 0x1fd8
 495 -54 540 -99 540 -154 c 0
 540 -264 455 -302 340 -302 c 1
 290 -252 l 1
 240 -302 l 1
 200 -254 l 1
 175 -279 152 -302 100 -302 c 0
 48 -302 0 -257 0 -202 c 0
 0 -147 45 -102 100 -102 c 0x6fd8
 132 -102 161 -117 179 -141 c 1
 187 -131 200 -98 200 -60 c 1
 290 -60 l 1
 290 -111 270 -159 240 -197 c 1
 290 -152 l 1
 350 -217 l 1
 350 -217 354 -216 360 -214 c 1
 348 -198 340 -177 340 -154 c 0
 340 -99 385 -54 440 -54 c 0x1fd8
440 -114 m 0x9fd8
 418 -114 400 -132 400 -154 c 0
 400 -176 418 -194 440 -194 c 0
 462 -194 480 -176 480 -154 c 0
 480 -132 462 -114 440 -114 c 0x9fd8
100 -162 m 0x6fc0
 78 -162 60 -180 60 -202 c 0
 60 -224 78 -242 100 -242 c 0
 122 -242 140 -224 140 -202 c 0
 140 -180 122 -162 100 -162 c 0x6fc0
EndSplineSet
Refer: 3 63232 N 1 0 0 1 0 0 2
EndChar

StartChar: uni0E11
Encoding: 3601 3601 82
Width: 700
VWidth: 0
Flags: W
HStem: 0 600<472.625 616.946> 287 65<93.3212 172.788> 442 65<93.3008 173.012>
VStem: 10 78<356.639 482.837> 130 190<0 210.703> 178 64<357.345 436.655> 470 190<0 399.993>
LayerCount: 2
Fore
SplineSet
125 612 m 5x76
 195 560 l 1
 265 612 l 5
 265 612 352 571 381 475 c 1
 426 540 486 600 540 600 c 0
 634 600 660 536 660 400 c 2
 660 0 l 1
 470 0 l 1
 470 370 l 2
 470 391 460 400 460 400 c 1
 460 400 320 236 320 100 c 2
 320 0 l 1
 130 0 l 1
 130 176 l 2
 130 262 291 337 291 448 c 0
 291 524 258 546 258 546 c 1
 195 500 l 1
 130 546 l 1x9a
 130 546 101 528 93 500 c 1
 104 505 121 507 132 507 c 0
 193 507 242 460 242 397 c 0
 242 334 193 287 131 287 c 0
 69 287 10 327 10 420 c 0
 10 573 125 612 125 612 c 5x76
133 442 m 0x76
 109 442 88 422 88 397 c 0
 88 372 109 352 133 352 c 0
 158 352 178 372 178 397 c 0
 178 422 158 442 133 442 c 0x76
EndSplineSet
EndChar

StartChar: uni0E12
Encoding: 3602 3602 83
Width: 960
VWidth: 0
Flags: HW
HStem: -12 75<494.489 585.488> 0 21G<60 248> 365 65<269.488 350.512>
VStem: 20 150<205.622 473.784> 200 65<279.735 360.512> 355 65<279.797 360.512> 410 75<72.4892 164.394> 450 180<234 482.604> 740 190<150 590>
LayerCount: 2
Fore
SplineSet
200 612 m 5x7c80
 315 544 l 1
 430 612 l 5
 586 570 619 461 620 340 c 1
 620 225 l 1x7d80
 672 202 712 169 730 150 c 1
 730 590 l 1
 920 590 l 1
 920 28 l 1
 920 28 833 -3 750 -12 c 1
 750 -12 714 53 657 92 c 1
 645 32 593 -12 530 -12 c 0
 458 -12 400 46 400 118 c 0xba80
 400 162 422 200 455 224 c 1
 440 234 l 1
 440 234 440 338 440 390 c 0xb980
 440 458 430 488 400 504 c 1xba80
 315 454 l 1
 220 504 l 1
 173 457 170 427 170 340 c 0
 170 258 193 222 211 158 c 1
 227 176 252 202 267 219 c 1
 228 236 200 275 200 320 c 0
 200 381 249 430 310 430 c 0
 371 430 420 381 420 320 c 0
 420 168 266 134 230 0 c 1
 60 0 l 1
 60 188 20 206 20 340 c 1
 21 461 65 569 200 612 c 5x7c80
310 365 m 0
 285 365 265 345 265 320 c 0
 265 295 285 275 310 275 c 0
 335 275 355 295 355 320 c 0
 355 345 335 365 310 365 c 0
530 173 m 0
 500 173 475 148 475 118 c 0
 475 88 500 63 530 63 c 0xba80
 560 63 585 88 585 118 c 0
 585 148 560 173 530 173 c 0
EndSplineSet
EndChar

StartChar: uni0E13
Encoding: 3603 3603 84
Width: 950
VWidth: 0
Flags: W
HStem: -12 75<144.489 235.511 764.489 855.511> 492 120<224.213 379.652>
VStem: 60 190<216.095 339.278> 60 75<73.2203 164.242> 245 75<72.4892 164.461> 410 190<170 458.65> 680 75<73.2203 118> 710 190<235.071 590> 865 75<72.4892 163.616>
LayerCount: 2
Fore
SplineSet
310 612 m 5xe4
 506 612 599 497 600 334 c 5
 600 170 l 1
 600 170 649 222 710 247 c 1
 710 590 l 1
 900 590 l 1
 900 230 l 1xe5
 885 224 l 1
 918 201 940 162 940 118 c 0
 940 46 882 -12 810 -12 c 0
 738 -12 680 46 680 118 c 1
 618 62 570 -12 570 -12 c 1
 426 -12 410 61 410 205 c 2
 410 334 l 6
 410 417 403 492 310 492 c 4
 238 492 205 452 185 431 c 5
 290 379 l 5
 290 379 250 355 250 324 c 6
 250 233 l 1xe680
 292 212 320 168 320 118 c 0
 320 46 262 -12 190 -12 c 0
 118 -12 60 46 60 118 c 2xdc
 60 284 l 6
 60 312 92 355 125 374 c 5
 20 423 l 5
 97 544 180 610 310 612 c 5xe4
190 173 m 0
 160 173 135 148 135 118 c 0
 135 88 160 63 190 63 c 0
 220 63 245 88 245 118 c 0xdc
 245 148 220 173 190 173 c 0
810 173 m 0
 780 173 755 148 755 118 c 0
 755 88 780 63 810 63 c 0
 840 63 865 88 865 118 c 0xc680
 865 148 840 173 810 173 c 0
EndSplineSet
EndChar

StartChar: uni0E14
Encoding: 3604 3604 85
Width: 650
VWidth: 0
Flags: W
HStem: 0 21G<60 248 430 610> 365 65<264.488 345.512> 492 120<231.505 377.399>
VStem: 20 150<194.004 420.405> 195 65<279.735 360.512> 350 65<279.797 360.512> 430 180<0 434.671>
LayerCount: 2
Fore
SplineSet
60 0 m 1
 60 188 20 170 20 304 c 0
 21 467 115 612 305 612 c 4
 501 612 609 491 610 328 c 1
 610 0 l 1
 430 0 l 1
 430 328 l 2
 430 411 398 492 305 492 c 0
 212 492 170 399 170 304 c 0
 170 240 199 198 211 146 c 1
 215 164 247 202 262 219 c 1
 223 236 195 275 195 320 c 0
 195 381 244 430 305 430 c 0
 366 430 415 381 415 320 c 0
 415 168 266 134 230 0 c 1
 60 0 l 1
305 365 m 0
 280 365 260 345 260 320 c 0
 260 295 280 275 305 275 c 0
 330 275 350 295 350 320 c 0
 350 345 330 365 305 365 c 0
EndSplineSet
EndChar

StartChar: uni0E15
Encoding: 3605 3605 86
Width: 650
VWidth: 0
Flags: W
HStem: 0 21G<60 248 430 610> 365 65<264.488 345.512>
VStem: 20 150<192.234 474.798> 195 65<279.735 360.512> 350 65<279.797 360.512> 430 180<0 477.84>
LayerCount: 2
Fore
SplineSet
195 612 m 1
 305 544 l 1
 415 612 l 1
 571 570 609 461 610 340 c 1
 610 0 l 1
 430 0 l 1
 430 390 l 2
 430 458 415 488 385 504 c 1
 305 454 l 1
 215 504 l 1
 168 457 170 427 170 328 c 0
 170 246 193 210 211 146 c 1
 215 164 247 202 262 219 c 1
 223 236 195 275 195 320 c 0
 195 381 244 430 305 430 c 0
 366 430 415 381 415 320 c 0
 415 168 266 134 230 0 c 1
 173 0 117 0 60 0 c 1
 60 188 20 194 20 328 c 1
 21 449 60 569 195 612 c 1
305 365 m 0
 280 365 260 345 260 320 c 0
 260 295 280 275 305 275 c 0
 330 275 350 295 350 320 c 0
 350 345 330 365 305 365 c 0
EndSplineSet
EndChar

StartChar: uni0E17
Encoding: 3607 3607 87
Width: 680
VWidth: 0
Flags: W
HStem: 0 600<452.016 596.946> 522 90<108.642 201.358>
VStem: 10 90<420.934 513.358> 110 190<0 210.703> 210 90<420.758 513.242> 450 190<0 399.993>
LayerCount: 2
Fore
SplineSet
155 612 m 0x74
 235 612 300 547 300 467 c 2
 300 360 l 1x6c
 328 439 431 600 520 600 c 4
 614 600 640 536 640 400 c 2
 640 0 l 1
 450 0 l 1
 450 370 l 2
 450 391 440 400 440 400 c 1
 440 400 300 236 300 100 c 2
 300 0 l 1
 110 0 l 1xb4
 110 329 l 1
 52 348 10 403 10 467 c 0
 10 547 75 612 155 612 c 0x74
155 522 m 0
 125 522 100 497 100 467 c 0
 100 437 125 412 155 412 c 0
 185 412 210 437 210 467 c 0
 210 497 185 522 155 522 c 0
EndSplineSet
EndChar

StartChar: uni0E18
Encoding: 3608 3608 88
Width: 610
VWidth: 0
Flags: W
HStem: -12 120<239.423 358.667> 492 120<236.738 425.272>
VStem: 40 190<117.582 294> 360 190<114.961 318.48>
LayerCount: 2
Fore
SplineSet
310 612 m 0
 398 612 461 571 490 540 c 1
 512 562 570 590 570 590 c 1
 570 480 l 1
 570 480 544 470 490 420 c 1
 434 476 364 492 310 492 c 0
 256 492 210 456 210 424 c 1
 385 404 550 386 550 284 c 2
 550 53 l 1
 550 53 474 -12 295 -12 c 0
 116 -12 40 38 40 160 c 2
 40 294 l 1
 230 294 l 1
 230 180 l 2
 231 124 252 108 295 108 c 0
 338 108 360 130 360 130 c 1
 360 291 l 2
 360 356 105 354 20 364 c 1
 20 534 190 612 310 612 c 0
EndSplineSet
EndChar

StartChar: uni0E1C
Encoding: 3612 3612 89
Width: 680
VWidth: 0
Flags: W
HStem: 522 90<118.642 211.358>
VStem: 20 190<152.514 340.44> 20 90<420.758 513.242> 220 90<420.934 513.358> 450 190<150 590>
LayerCount: 2
Fore
SplineSet
165 612 m 4xb8
 245 612 310 547 310 467 c 0
 310 403 268 348 210 329 c 1
 210 150 l 1
 290 350 l 1
 370 350 l 1
 450 150 l 1
 450 590 l 1
 640 590 l 1
 640 38 l 1
 640 38 585 -12 440 -12 c 1
 330 240 l 1
 220 -12 l 1
 61 -12 20 1 20 205 c 2xd8
 20 467 l 2
 20 547 85 612 165 612 c 4xb8
165 522 m 0
 135 522 110 497 110 467 c 0xb8
 110 437 135 412 165 412 c 0
 195 412 220 437 220 467 c 0
 220 497 195 522 165 522 c 0
EndSplineSet
EndChar

StartChar: uni0E1E
Encoding: 3614 3614 90
Width: 760
VWidth: 0
Flags: W
HStem: 522 90<98.6419 191.358>
VStem: 0 90<420.934 513.358> 100 190<122.685 340.44> 200 90<420.758 513.242> 530 190<120 590>
LayerCount: 2
Fore
SplineSet
145 612 m 4xe8
 225 612 290 547 290 467 c 2
 290 120 l 1xd8
 360 540 l 1
 460 540 l 1
 530 120 l 1
 530 590 l 1
 720 590 l 1
 720 38 l 1
 720 38 625 -12 480 -12 c 1
 410 360 l 1
 340 -12 l 1
 181 -12 100 1 100 205 c 2
 100 329 l 1
 42 348 0 403 0 467 c 0
 0 547 65 612 145 612 c 4xe8
145 522 m 0
 115 522 90 497 90 467 c 0
 90 437 115 412 145 412 c 0
 175 412 200 437 200 467 c 0
 200 497 175 522 145 522 c 0
EndSplineSet
EndChar

StartChar: uni0E20
Encoding: 3616 3616 91
Width: 640
VWidth: 0
Flags: W
HStem: -12 75<94.4892 185.511> 0 21G<410 600> 492 120<224.213 379.652>
VStem: 10 75<72.4892 164.461> 80 190<216.095 358.22> 195 75<73.2203 164.242> 410 190<0 458.65>
LayerCount: 2
Back
SplineSet
332 617 m 5xba
 528 617 619 504 620 341 c 5
 620 0 l 5
 440 0 l 5
 440 341 l 6
 440 424 425 497 332 497 c 4
 260 497 205 458 185 437 c 5
 260 400 l 5
 260 118 l 6x76
 260 46 202 -12 130 -12 c 4
 58 -12 0 46 0 118 c 4
 0 172 33 218 80 238 c 5
 80 290 l 6
 80 318 92 361 125 380 c 5
 20 429 l 5
 97 550 202 615 332 617 c 5xba
130 173 m 4
 100 173 75 148 75 118 c 4
 75 88 100 63 130 63 c 4xb6
 160 63 185 88 185 118 c 4
 185 148 160 173 130 173 c 4
EndSplineSet
Fore
SplineSet
310 612 m 5xaa
 506 612 599 497 600 334 c 5
 600 0 l 1
 410 0 l 1
 410 334 l 6
 410 417 403 492 310 492 c 4
 238 492 205 452 185 431 c 5
 290 379 l 5
 290 379 270 355 270 324 c 6x6a
 270 118 l 2
 270 46 212 -12 140 -12 c 0
 68 -12 10 46 10 118 c 0xb6
 10 168 38 212 80 233 c 1
 80 284 l 6
 80 312 92 355 125 374 c 5
 20 423 l 5
 97 544 180 610 310 612 c 5xaa
140 173 m 0
 110 173 85 148 85 118 c 0
 85 88 110 63 140 63 c 0
 170 63 195 88 195 118 c 0xb6
 195 148 170 173 140 173 c 0
EndSplineSet
EndChar

StartChar: uni0E22
Encoding: 3618 3618 92
Width: 610
VWidth: 0
Flags: W
HStem: -12 120<224.288 376.744> 537 75<135.337 225.511>
VStem: 20 190<123.904 217.794> 20 105<436.151 527.407> 235 75<436.545 527.511> 380 190<117.97 590>
LayerCount: 2
Fore
SplineSet
180 612 m 0xdc
 252 612 310 554 310 482 c 0
 310 415 259 360 194 353 c 1
 233 343 280 340 330 368 c 5
 330 238 l 1
 233 238 210 204 210 168 c 0
 210 131 241 108 295 108 c 0
 349 108 380 130 380 130 c 1
 380 590 l 1
 570 590 l 1
 570 48 l 1
 570 48 456 -12 295 -12 c 0
 124 -12 20 28 20 168 c 0xec
 20 228 67 289 119 307 c 1
 61 331 20 385 20 452 c 1
 22 514 69 612 180 612 c 0xdc
180 537 m 0
 150 537 125 512 125 482 c 0xdc
 125 452 150 427 180 427 c 0
 210 427 235 452 235 482 c 0
 235 512 210 537 180 537 c 0
EndSplineSet
EndChar

StartChar: uni0E24
Encoding: 3620 3620 93
Width: 640
VWidth: 0
Flags: HW
HStem: -12 75<144.489 235.511> 498 120<224.213 379.652>
VStem: 60 190<216.095 345.278> 60 75<73.2203 164.242> 245 75<72.4892 164.461> 410 190<-260 464.65>
LayerCount: 2
Fore
SplineSet
310 612 m 5xe4
 506 612 599 497 600 334 c 5
 600 -260 l 1
 410 -260 l 1
 410 334 l 6
 410 417 403 492 310 492 c 4
 238 492 205 452 185 431 c 5
 290 379 l 5
 290 379 250 355 250 324 c 6
 250 233 l 1xe4
 292 212 320 168 320 118 c 0
 320 46 262 -12 190 -12 c 0
 118 -12 60 46 60 118 c 2xdc
 60 284 l 6
 60 312 92 355 125 374 c 5
 20 423 l 5
 97 544 180 610 310 612 c 5xe4
190 173 m 0
 160 173 135 148 135 118 c 0
 135 88 160 63 190 63 c 0
 220 63 245 88 245 118 c 0xdc
 245 148 220 173 190 173 c 0
EndSplineSet
EndChar

StartChar: uni0E25
Encoding: 3621 3621 94
Width: 610
VWidth: 0
Flags: W
HStem: -12 75<113.876 205.511> 275 120<214.731 320.186> 492 120<116.263 350.716>
VStem: 20 85<73.2203 164.242> 215 75<72.4892 163.875> 380 190<25.3369 207.402 318 461.377>
LayerCount: 2
Back
SplineSet
270 618 m 4
 431 618 590 567 590 356 c 6
 590 37 l 5
 590 37 517 0 400 -12 c 5
 400 150 l 6
 400 216 339 290 265 290 c 4
 229 290 220 254 220 238 c 5
 267 218 300 172 300 118 c 4
 300 46 242 -12 170 -12 c 4
 98 -12 40 46 40 118 c 6
 40 210 l 6
 40 296 110 410 265 410 c 4
 328 410 379 374 400 330 c 5
 400 410 l 6
 400 467 326 498 270 498 c 4
 205 498 140 476 70 425 c 5
 20 526 l 5
 77 582 203 618 270 618 c 4
170 173 m 4
 140 173 115 148 115 118 c 4
 115 88 140 63 170 63 c 4
 200 63 225 88 225 118 c 4
 225 148 200 173 170 173 c 4
EndSplineSet
Fore
SplineSet
270 612 m 0
 431 612 570 555 570 344 c 2
 570 28 l 1
 570 28 497 0 380 -12 c 1
 380 120 l 2
 380 186 329 275 255 275 c 0
 229 275 210 254 210 238 c 1
 257 218 290 172 290 118 c 0
 290 46 232 -12 160 -12 c 0
 88 -12 20 46 20 118 c 2
 20 210 l 2
 20 306 84 395 255 395 c 0
 351 395 380 318 380 318 c 5
 380 446 366 492 270 492 c 0
 199 492 110 479 20 420 c 1
 20 540 l 1
 68 577 180 612 270 612 c 0
160 173 m 0
 130 173 105 148 105 118 c 0
 105 88 130 63 160 63 c 0
 190 63 215 88 215 118 c 0
 215 148 190 173 160 173 c 0
EndSplineSet
EndChar

StartChar: uni0E26
Encoding: 3622 3622 95
Width: 640
VWidth: 0
Flags: HW
HStem: -12 75<94.4892 185.511> 498 120<224.213 379.652>
VStem: 10 75<72.4892 164.461> 80 190<216.095 364.22> 195 75<73.2203 164.242> 410 190<-260 464.65>
LayerCount: 2
Fore
SplineSet
310 612 m 5xd4
 506 612 599 497 600 334 c 5
 600 -260 l 1
 410 -260 l 1
 410 334 l 6
 410 417 403 492 310 492 c 4
 238 492 205 452 185 431 c 5
 290 379 l 5
 290 379 270 355 270 324 c 6xd4
 270 118 l 2
 270 46 212 -12 140 -12 c 0
 68 -12 10 46 10 118 c 0xec
 10 168 38 212 80 233 c 1
 80 284 l 6
 80 312 92 355 125 374 c 5
 20 423 l 5
 97 544 180 610 310 612 c 5xd4
140 173 m 0
 110 173 85 148 85 118 c 0
 85 88 110 63 140 63 c 0
 170 63 195 88 195 118 c 0xec
 195 148 170 173 140 173 c 0
EndSplineSet
EndChar

StartChar: uni0E28
Encoding: 3624 3624 96
Width: 660
VWidth: 0
Flags: W
HStem: 0 21G<60 232.222 440 620> 210 65<264.361 345.512> 365 65<265.234 345.456> 492 120<234.627 390.536>
VStem: 20 150<293.337 426.764> 60 170<0 211.112> 350 65<279.488 360.512> 440 180<0 438.224>
LayerCount: 2
Back
SplineSet
440 660 m 5xfb
 630 660 l 5
 614 585 598 541 567 518 c 5
 594 479 610 426 610 356 c 6
 610 0 l 5
 440 0 l 5
 440 356 l 6
 440 456 394 498 310 498 c 4
 188 498 143 430 143 342 c 4xfb
 143 322 146 301 150 280 c 5
 175 344 213 430 300 430 c 4
 361 430 410 381 410 320 c 4
 410 259 361 210 300 210 c 4
 273 210 249 219 230 235 c 5
 218 223 224 205 224 191 c 4
 224 187 224 183 225 180 c 4
 231 148 235 117 235 80 c 4
 235 52 233 30 230 0 c 5
 60 0 l 5xf7
 60 86 52 139 42 180 c 4
 27 239 20 274 20 342 c 4
 20 518 129 618 310 618 c 4
 352 618 393 614 430 605 c 5
 436 622 440 641 440 660 c 5xfb
300 365 m 4
 275 365 255 345 255 320 c 4
 255 295 275 275 300 275 c 4
 325 275 345 295 345 320 c 4
 345 345 325 365 300 365 c 4
EndSplineSet
Fore
SplineSet
640 660 m 1xfb
 640 496 l 1
 617 496 598 488 581 479 c 5
 606 436 620 384 620 328 c 6
 620 0 l 1
 440 0 l 1
 440 328 l 6
 440 411 408 492 315 492 c 4
 222 492 170 417 170 334 c 0xfb
 170 316 171 306 173 292 c 1
 196 364 235 430 305 430 c 0
 372 430 415 381 415 320 c 0
 415 259 366 210 305 210 c 0
 273 210 255 225 255 225 c 1
 236 208 230 0 230 0 c 1
 60 0 l 1xf7
 60 188 20 200 20 334 c 0
 21 497 119 612 315 612 c 4
 374 612 426 601 468 581 c 5
 507 612 563 649 640 660 c 1xfb
305 365 m 0
 280 365 260 345 260 320 c 0
 260 295 280 275 305 275 c 0
 330 275 350 295 350 320 c 0
 350 345 330 365 305 365 c 0
EndSplineSet
EndChar

StartChar: uni0E29
Encoding: 3625 3625 97
Width: 730
VWidth: 0
Flags: W
HStem: -12 120<319.5 467.377> 372 65<384.488 465.812> 522 90<108.642 201.358>
VStem: 10 90<420.934 513.358> 110 190<127.105 340.44> 210 90<420.758 513.242> 315 65<287.234 367.512> 470 190<118.485 184.607 346 367.588 427 590>
LayerCount: 2
Fore
SplineSet
155 612 m 0xfb
 235 612 300 547 300 467 c 2xf7
 300 205 l 2
 300 142 326 108 380 108 c 0
 434 108 470 130 470 130 c 1
 470 177 l 1
 390 197 315 246 315 327 c 0
 315 388 364 437 425 437 c 0
 441 437 456 434 470 427 c 1
 470 590 l 1
 660 590 l 1
 660 346 l 1
 678 367 715 392 730 420 c 5
 730 230 l 5
 714 217 678 205 660 194 c 1
 660 60 l 1
 660 60 588 -12 375 -12 c 0
 162 -12 110 61 110 205 c 2
 110 329 l 1
 52 348 10 403 10 467 c 0
 10 547 75 612 155 612 c 0xfb
155 522 m 0
 125 522 100 497 100 467 c 0
 100 437 125 412 155 412 c 0
 185 412 210 437 210 467 c 0
 210 497 185 522 155 522 c 0
425 372 m 0
 400 372 380 352 380 327 c 0
 380 302 400 282 425 282 c 0
 450 282 470 302 470 327 c 0
 470 352 450 372 425 372 c 0
EndSplineSet
EndChar

StartChar: uni0E2A
Encoding: 3626 3626 98
Width: 610
VWidth: 0
Flags: W
HStem: -12 75<113.876 205.511> 275 120<214.731 320.186> 492 120<116.263 351.355>
VStem: 20 85<73.2203 164.242> 215 75<72.4892 163.875> 380 190<25.3369 207.402 318 462.571>
LayerCount: 2
Back
SplineSet
410 660 m 5
 600 660 l 5
 584 584 567 540 536 517 c 5
 564 478 580 426 580 356 c 6
 580 37 l 5
 580 37 527 0 410 -12 c 5
 410 150 l 6
 410 216 339 290 265 290 c 4
 229 290 220 254 220 238 c 5
 267 218 300 172 300 118 c 4
 300 46 242 -12 170 -12 c 4
 98 -12 40 46 40 118 c 6
 40 210 l 6
 40 296 110 410 265 410 c 4
 328 410 389 374 410 330 c 5
 410 410 l 6
 410 467 326 498 270 498 c 4
 205 498 140 476 70 425 c 5
 20 526 l 5
 77 582 203 618 270 618 c 4
 315 618 359 614 399 604 c 5
 406 621 410 640 410 660 c 5
170 173 m 4
 140 173 115 148 115 118 c 4
 115 88 140 63 170 63 c 4
 200 63 225 88 225 118 c 4
 225 148 200 173 170 173 c 4
EndSplineSet
Fore
SplineSet
590 660 m 1
 590 496 l 1
 572 496 557 489 543 481 c 1
 560 445 570 400 570 344 c 2
 570 28 l 1
 570 28 497 0 380 -12 c 1
 380 120 l 2
 380 186 329 275 255 275 c 0
 229 275 210 254 210 238 c 1
 257 218 290 172 290 118 c 0
 290 46 232 -12 160 -12 c 0
 88 -12 20 46 20 118 c 2
 20 210 l 2
 20 306 84 395 255 395 c 0
 351 395 380 318 380 318 c 1
 380 446 366 492 270 492 c 0
 199 492 110 479 20 420 c 1
 20 540 l 1
 68 577 180 612 270 612 c 4
 326 612 380 605 426 587 c 1
 464 616 517 650 590 660 c 1
160 173 m 0
 130 173 105 148 105 118 c 0
 105 88 130 63 160 63 c 0
 190 63 215 88 215 118 c 0
 215 148 190 173 160 173 c 0
EndSplineSet
EndChar

StartChar: uni0E2C
Encoding: 3628 3628 99
Width: 850
VWidth: 0
Flags: W
HStem: 522 90<108.642 201.358> 537 75<584.489 675.566>
VStem: 10 90<420.934 513.358> 110 190<186.429 340.44> 210 90<420.758 513.242> 500 75<435.956 527.511> 540 190<180 388> 685 145<435.758 506.873>
LayerCount: 2
Fore
SplineSet
155 612 m 0xb2
 235 612 300 547 300 467 c 2
 300 180 l 1
 370 540 l 1
 470 540 l 1
 540 180 l 1
 540 388 l 1xaa
 515 412 500 445 500 482 c 0
 500 554 558 612 630 612 c 0
 693 612 746 567 758 507 c 1
 783 517 819 527 830 540 c 1
 830 420 l 1x65
 830 420 770 389 730 381 c 1
 730 38 l 1
 730 38 635 -12 490 -12 c 1
 420 360 l 1
 350 -12 l 1
 191 -12 110 1 110 205 c 2
 110 329 l 1
 52 348 10 403 10 467 c 0
 10 547 75 612 155 612 c 0xb2
630 537 m 0x65
 600 537 575 512 575 482 c 0
 575 452 600 427 630 427 c 0
 660 427 685 452 685 482 c 0
 685 512 660 537 630 537 c 0x65
155 522 m 0xa8
 125 522 100 497 100 467 c 0
 100 437 125 412 155 412 c 0
 185 412 210 437 210 467 c 0
 210 497 185 522 155 522 c 0xa8
EndSplineSet
EndChar

StartChar: uni0E2D
Encoding: 3629 3629 100
Width: 610
VWidth: 0
Flags: W
HStem: -12 110<227.815 374.666> 346 90<128.642 221.358> 492 120<116.263 339.493>
VStem: 30 90<246.466 337.242> 230 90<244.803 337.358> 380 190<109.755 447.085>
LayerCount: 2
Back
SplineSet
290 624 m 4
 451 624 590 573 590 362 c 6
 590 54 l 5
 590 54 482 -18 320 -18 c 4
 228 -18 159 -9 108 48 c 4
 57 105 50 142 50 256 c 6
 50 285 l 6
 50 365 115 430 195 430 c 4
 275 430 340 365 340 285 c 4
 340 216 292 159 228 144 c 5
 244 115 272 92 320 92 c 4
 358 92 383 107 400 120 c 5
 400 362 l 5
 398 462 371 504 290 504 c 4
 225 504 140 482 70 431 c 5
 20 532 l 5
 77 588 223 624 290 624 c 4
195 340 m 4
 165 340 140 315 140 285 c 4
 140 255 165 230 195 230 c 4
 225 230 250 255 250 285 c 4
 250 315 225 340 195 340 c 4
EndSplineSet
Fore
SplineSet
270 612 m 4
 431 612 570 555 570 344 c 2
 570 60 l 1
 570 60 462 -12 300 -12 c 0
 208 -12 139 -3 88 54 c 0
 37 111 30 148 30 262 c 2
 30 291 l 2
 30 371 95 436 175 436 c 0
 255 436 320 371 320 291 c 0
 320 222 272 165 208 150 c 1
 224 121 252 98 300 98 c 0
 338 98 363 113 380 126 c 1
 380 318 l 2
 380 410 366 492 270 492 c 0
 199 492 110 479 20 420 c 1
 20 540 l 1
 68 577 180 612 270 612 c 4
175 346 m 0
 145 346 120 321 120 291 c 0
 120 261 145 236 175 236 c 0
 205 236 230 261 230 291 c 0
 230 321 205 346 175 346 c 0
EndSplineSet
EndChar

StartChar: uni0E2E
Encoding: 3630 3630 101
Width: 610
VWidth: 0
Flags: W
HStem: -12 110<227.815 374.666> 346 90<128.642 221.358> 492 120<116.263 342.271>
VStem: 30 90<246.466 337.242> 230 90<244.803 337.358> 380 190<109.755 450.943>
LayerCount: 2
Back
SplineSet
290 617 m 4
 451 617 590 567 590 356 c 6
 590 60 l 5
 590 60 482 -12 320 -12 c 4
 228 -12 159 -3 108 54 c 4
 57 111 50 142 50 256 c 6
 50 285 l 6
 50 365 115 430 195 430 c 4
 275 430 340 365 340 285 c 4
 340 216 292 159 228 144 c 5
 244 115 272 98 320 98 c 4
 358 98 393 113 410 126 c 5
 410 356 l 5
 408 456 371 497 290 497 c 4
 225 497 140 476 70 425 c 5
 20 526 l 5
 77 582 223 617 290 617 c 4
195 340 m 4
 165 340 140 315 140 285 c 4
 140 255 165 230 195 230 c 4
 225 230 250 255 250 285 c 4
 250 315 225 340 195 340 c 4
EndSplineSet
Fore
SplineSet
590 660 m 1
 590 496 l 1
 572 496 557 483 543 481 c 5
 560 445 570 400 570 344 c 6
 570 60 l 1
 570 60 462 -12 300 -12 c 0
 208 -12 139 -3 88 54 c 0
 37 111 30 148 30 262 c 2
 30 291 l 2
 30 371 95 436 175 436 c 0
 255 436 320 371 320 291 c 0
 320 222 272 165 208 150 c 1
 224 121 252 98 300 98 c 0
 338 98 363 113 380 126 c 1
 380 318 l 6
 380 410 366 492 270 492 c 4
 199 492 110 479 20 420 c 1
 20 540 l 1
 68 577 180 612 270 612 c 4
 326 612 380 605 426 587 c 5
 464 616 517 650 590 660 c 1
175 346 m 0
 145 346 120 321 120 291 c 0
 120 261 145 236 175 236 c 0
 205 236 230 261 230 291 c 0
 230 321 205 346 175 346 c 0
EndSplineSet
EndChar

StartChar: uni0E2F
Encoding: 3631 3631 102
Width: 590
VWidth: 0
Flags: HW
HStem: -12 120<235 340.085> 323 107<235 311.123> 530 65<99.4878 180.512>
VStem: 30 65<445.148 525.512> 185 65<444.29 525.512> 370 190<132.649 383 493.509 573>
LayerCount: 2
Fore
SplineSet
140 595 m 0
 201 595 250 546 250 485 c 0
 250 465 245 446 235 430 c 1
 309 430 355 482 370 573 c 1
 560 573 l 1
 560 573 560 304 560 108 c 1
 560 108 486 -12 235 -12 c 1
 235 88 l 5
 318 88 370 128 370 128 c 5
 370 210 370 383 370 383 c 1
 370 383 331 323 235 323 c 0
 133 323 30 373 30 485 c 0
 30 546 79 595 140 595 c 0
140 530 m 0
 115 530 95 510 95 485 c 0
 95 460 115 440 140 440 c 0
 165 440 185 460 185 485 c 0
 185 510 165 530 140 530 c 0
EndSplineSet
EndChar

StartChar: uni0E30
Encoding: 3632 3632 103
Width: 560
VWidth: 0
Flags: HW
HStem: 20 99<243 321.025> 230 70<96.2406 183.865> 320 99<243 321.025> 530 70<96.2406 183.865>
VStem: 20 70<136.57 223.445 436.57 523.445> 190 70<136.617 223.674 436.617 523.674> 376 144<175.521 260 475.521 560>
LayerCount: 2
Fore
SplineSet
140 600 m 0
 206 600 260 546 260 480 c 0
 260 458 254 437 243 419 c 1
 329 419 376 478 376 550 c 1
 520 550 l 1
 520 426 411 320 260 320 c 0
 139 320 20 360 20 485 c 0
 20 551 75 600 140 600 c 0
140 530 m 0
 112 530 90 508 90 480 c 0
 90 452 112 430 140 430 c 0
 167 430 190 452 190 480 c 0
 190 508 167 530 140 530 c 0
140 300 m 0
 206 300 260 246 260 180 c 0
 260 158 254 137 243 119 c 1
 329 119 376 178 376 250 c 5
 520 250 l 5
 520 126 411 20 260 20 c 0
 139 20 20 60 20 185 c 0
 20 251 75 300 140 300 c 0
140 230 m 0
 112 230 90 208 90 180 c 0
 90 152 112 130 140 130 c 0
 167 130 190 152 190 180 c 0
 190 208 167 230 140 230 c 0
EndSplineSet
EndChar

StartChar: uni0E42
Encoding: 3650 3650 105
Width: 370
VWidth: 0
Flags: W
HStem: -12 75<184.489 275.511> 895 117<366.911 430> 942 90<117.999 295.009>
VStem: 100 190<216.095 775.135> 100 75<73.2203 164.242> 285 75<72.4892 164.461>
LayerCount: 2
Fore
SplineSet
200 1032 m 0xb0
 270 1032 321 1002 349 970 c 1
 366 989 400 1012 430 1012 c 1
 430 895 l 1xd0
 399 892 365 880 349 860 c 1
 322 903 276 942 200 942 c 0
 146 942 119 921 100 902 c 1xa8
 159 877 290 802 290 700 c 2
 290 233 l 1xb0
 332 212 360 168 360 118 c 0
 360 46 302 -12 230 -12 c 0
 158 -12 100 46 100 118 c 2xac
 100 700 l 2
 100 765 65 842 -20 852 c 1
 -20 959 80 1032 200 1032 c 0xb0
230 173 m 0
 200 173 175 148 175 118 c 0
 175 88 200 63 230 63 c 0
 260 63 285 88 285 118 c 0x8c
 285 148 260 173 230 173 c 0
EndSplineSet
EndChar

StartChar: uni0E43
Encoding: 3651 3651 106
Width: 381
VWidth: 0
Flags: W
HStem: -12 75<184.489 275.511> 727 70<63.3212 142.788> 887 65<102 142.437> 968 64<103.484 226.339>
VStem: -20 78<802.808 881.571> 100 190<216.095 653.657> 100 75<73.2203 164.242> 148 64<802.038 881.655> 261 100<790.648 934.178> 285 75<72.4892 164.461>
LayerCount: 2
Fore
SplineSet
160 1032 m 0xf980
 300 1032 361 939 361 830 c 0xf980
 361 721 290 665 290 590 c 2
 290 233 l 1xfc
 332 212 360 168 360 118 c 0
 360 46 302 -12 230 -12 c 0
 158 -12 100 46 100 118 c 2xfa40
 100 590 l 2xfc
 100 676 261 757 261 868 c 0
 261 922 221 968 155 968 c 0
 135 968 114 962 102 952 c 1
 163 952 212 905 212 842 c 0
 212 779 163 727 101 727 c 0
 39 727 -20 772 -20 865 c 0
 -20 948 55 1032 160 1032 c 0xf980
103 887 m 0
 79 887 58 867 58 842 c 0
 58 817 79 797 103 797 c 0
 128 797 148 817 148 842 c 0
 148 867 128 887 103 887 c 0
230 173 m 0
 200 173 175 148 175 118 c 0
 175 88 200 63 230 63 c 0
 260 63 285 88 285 118 c 0xfa40
 285 148 260 173 230 173 c 0
EndSplineSet
EndChar

StartChar: uni0E44
Encoding: 3652 3652 107
Width: 380
VWidth: 0
Flags: HW
HStem: -12 75<184.489 275.511>
VStem: 100 190<216.095 703.697> 100 75<73.2203 164.242> 285 75<72.4892 164.461>
LayerCount: 2
Fore
SplineSet
-20 1020 m 1xa0
 -20 1020 79 934 100 880 c 5xa0
 340 1020 l 1
 400 920 l 1
 400 920 290 797 290 590 c 2
 290 233 l 1xc0
 332 212 360 168 360 118 c 0
 360 46 302 -12 230 -12 c 0
 158 -12 100 46 100 118 c 2xb0
 100 590 l 2xc0
 100 688 250 868 250 868 c 1
 100 780 l 1
 59 851 -20 899 -20 899 c 1
 -20 1020 l 1xa0
230 173 m 0
 200 173 175 148 175 118 c 0
 175 88 200 63 230 63 c 0
 260 63 285 88 285 118 c 0xb0
 285 148 260 173 230 173 c 0
EndSplineSet
EndChar

StartChar: uni0E45
Encoding: 3653 3653 108
Width: 330
VWidth: 0
Flags: HW
HStem: 498 120<-101.086 68.5421>
VStem: 100 190<-260 463.321>
LayerCount: 2
Fore
SplineSet
100 -260 m 1
 100 350 l 1
 98 450 68 492 15 492 c 0
 -72 492 -112 473 -180 420 c 5
 -180 540 l 5
 -135 575 -81 612 15 612 c 0
 207 612 290 522 290 350 c 2
 290 -260 l 1
 100 -260 l 1
EndSplineSet
EndChar

StartChar: uni0E46
Encoding: 3654 3654 109
Width: 710
VWidth: 0
Flags: W
HStem: 210 75<144.489 235.511>
VStem: 60 75<295.22 382.839> 245 75<294.489 386.095> 410 180<-260 491.976>
LayerCount: 2
Fore
SplineSet
240 612 m 1
 325 538 l 1
 410 612 l 1
 566 570 589 461 590 340 c 1
 590 -260 l 1
 410 -260 l 1
 410 390 l 1
 408 458 410 488 380 504 c 1
 325 454 l 1
 270 504 l 1
 253 495 252 481 246 457 c 1
 290 436 320 392 320 340 c 0
 320 268 262 210 190 210 c 0
 118 210 60 268 60 340 c 0
 60 342 60 343 60 344 c 0
 62 464 86 571 240 612 c 1
190 395 m 0
 160 395 135 370 135 340 c 0
 135 310 160 285 190 285 c 0
 220 285 245 310 245 340 c 0
 245 370 220 395 190 395 c 0
EndSplineSet
EndChar

StartChar: uni0E1A.alt
Encoding: 63292 63292 123
Width: 700
VWidth: 0
Flags: W
HStem: -12 120<319.5 467.377> 522 90<108.642 201.358>
VStem: 10 90<420.934 513.358> 110 190<127.105 340.44> 210 90<420.758 513.242> 470 190<118.485 590>
LayerCount: 2
Fore
SplineSet
155 612 m 4xf4
 235 612 300 547 300 467 c 6xec
 300 205 l 6
 300 142 326 108 380 108 c 4
 434 108 470 130 470 130 c 5
 470 590 l 5
 660 590 l 5
 660 60 l 5
 660 60 588 -12 375 -12 c 4
 162 -12 110 61 110 205 c 6
 110 329 l 5
 52 348 10 403 10 467 c 4
 10 547 75 612 155 612 c 4xf4
155 522 m 4
 125 522 100 497 100 467 c 4
 100 437 125 412 155 412 c 4
 185 412 210 437 210 467 c 4
 210 497 185 522 155 522 c 4
EndSplineSet
EndChar

StartChar: uni0E1B.alt
Encoding: 63293 63293 124
Width: 700
VWidth: 0
Flags: HWO
HStem: -12 120<319.5 467.377> 522 90<108.642 201.358>
VStem: 10 90<420.934 513.358> 110 190<127.105 340.44> 210 90<420.758 513.242> 470 190<118.485 860>
LayerCount: 2
Fore
SplineSet
170 612 m 0xf4
 258 612 330 540 330 452 c 2xec
 330 205 l 2
 330 142 356 108 410 108 c 0
 464 108 500 130 500 130 c 1
 500 860 l 1
 690 860 l 1
 690 60 l 1
 690 60 618 -12 405 -12 c 0
 192 -12 140 61 140 205 c 2
 140 295 l 1
 66 309 10 374 10 452 c 0
 10 540 82 612 170 612 c 0xf4
170 512 m 0
 137 512 110 485 110 452 c 0
 110 419 137 392 170 392 c 0
 203 392 230 419 230 452 c 0
 230 485 203 512 170 512 c 0
EndSplineSet
EndChar
